<svg width="12" height="13" viewBox="0 0 12 13" fill="none" xmlns="http://www.w3.org/2000/svg">
<path d="M6 6.92407C5.175 6.92407 4.46875 6.63032 3.88125 6.04282C3.29375 5.45532 3 4.74907 3 3.92407C3 3.09907 3.29375 2.39282 3.88125 1.80532C4.46875 1.21782 5.175 0.924072 6 0.924072C6.825 0.924072 7.53125 1.21782 8.11875 1.80532C8.70625 2.39282 9 3.09907 9 3.92407C9 4.74907 8.70625 5.45532 8.11875 6.04282C7.53125 6.63032 6.825 6.92407 6 6.92407ZM0 12.9241V10.8241C0 10.3991 0.109375 10.0084 0.328125 9.6522C0.546875 9.29595 0.8375 9.02407 1.2 8.83657C1.975 8.44907 2.7625 8.15845 3.5625 7.9647C4.3625 7.77095 5.175 7.67407 6 7.67407C6.825 7.67407 7.6375 7.77095 8.4375 7.9647C9.2375 8.15845 10.025 8.44907 10.8 8.83657C11.1625 9.02407 11.4531 9.29595 11.6719 9.6522C11.8906 10.0084 12 10.3991 12 10.8241V12.9241H0ZM1.5 11.4241H10.5V10.8241C10.5 10.6866 10.4656 10.5616 10.3969 10.4491C10.3281 10.3366 10.2375 10.2491 10.125 10.1866C9.45 9.84907 8.76875 9.59595 8.08125 9.4272C7.39375 9.25845 6.7 9.17407 6 9.17407C5.3 9.17407 4.60625 9.25845 3.91875 9.4272C3.23125 9.59595 2.55 9.84907 1.875 10.1866C1.7625 10.2491 1.67188 10.3366 1.60313 10.4491C1.53438 10.5616 1.5 10.6866 1.5 10.8241V11.4241ZM6 5.42407C6.4125 5.42407 6.76563 5.2772 7.05938 4.98345C7.35313 4.6897 7.5 4.33657 7.5 3.92407C7.5 3.51157 7.35313 3.15845 7.05938 2.8647C6.76563 2.57095 6.4125 2.42407 6 2.42407C5.5875 2.42407 5.23438 2.57095 4.94063 2.8647C4.64688 3.15845 4.5 3.51157 4.5 3.92407C4.5 4.33657 4.64688 4.6897 4.94063 4.98345C5.23438 5.2772 5.5875 5.42407 6 5.42407Z" fill="#54627B"/>
</svg>
