<svg width="20" height="20" viewBox="0 0 20 20" fill="none" xmlns="http://www.w3.org/2000/svg">
<g clip-path="url(#clip0_240_5178)">
<mask id="mask0_240_5178" style="mask-type:luminance" maskUnits="userSpaceOnUse" x="0" y="0" width="20" height="20">
<path d="M0 0H20V20H0V0Z" fill="white"/>
</mask>
<g mask="url(#mask0_240_5178)">
<path d="M17.5013 9.16699H14.8596L16.9763 7.05033C17.3013 6.72533 17.3013 6.20033 16.9763 5.87533C16.6513 5.55033 16.118 5.55033 15.793 5.87533L12.5013 9.16699H10.8346V7.50033L14.1263 4.20866C14.4513 3.88366 14.4513 3.35033 14.1263 3.02533C13.8013 2.70033 13.2763 2.70033 12.9513 3.02533L10.8346 5.14199V2.50033C10.8346 2.04199 10.4596 1.66699 10.0013 1.66699C9.54297 1.66699 9.16797 2.04199 9.16797 2.50033V5.14199L7.0513 3.02533C6.7263 2.70033 6.2013 2.70033 5.8763 3.02533C5.5513 3.35033 5.5513 3.88366 5.8763 4.20866L9.16797 7.50033V9.16699H7.5013L4.20964 5.87533C3.88464 5.55033 3.3513 5.55033 3.0263 5.87533C2.7013 6.20033 2.7013 6.72533 3.0263 7.05033L5.14297 9.16699H2.5013C2.04297 9.16699 1.66797 9.54199 1.66797 10.0003C1.66797 10.4587 2.04297 10.8337 2.5013 10.8337H5.14297L3.0263 12.9503C2.7013 13.2753 2.7013 13.8003 3.0263 14.1253C3.3513 14.4503 3.88464 14.4503 4.20964 14.1253L7.5013 10.8337H9.16797V12.5003L5.8763 15.792C5.5513 16.117 5.5513 16.6503 5.8763 16.9753C6.2013 17.3003 6.7263 17.3003 7.0513 16.9753L9.16797 14.8587V17.5003C9.16797 17.9587 9.54297 18.3337 10.0013 18.3337C10.4596 18.3337 10.8346 17.9587 10.8346 17.5003V14.8587L12.9513 16.9753C13.2763 17.3003 13.8013 17.3003 14.1263 16.9753C14.4513 16.6503 14.4513 16.117 14.1263 15.792L10.8346 12.5003V10.8337H12.5013L15.793 14.1253C16.118 14.4503 16.6513 14.4503 16.9763 14.1253C17.3013 13.8003 17.3013 13.2753 16.9763 12.9503L14.8596 10.8337H17.5013C17.9596 10.8337 18.3346 10.4587 18.3346 10.0003C18.3346 9.54199 17.9596 9.16699 17.5013 9.16699Z" fill="#ADADAD"/>
</g>
</g>
<defs>
<clipPath id="clip0_240_5178">
<rect width="20" height="20" fill="white"/>
</clipPath>
</defs>
</svg>
