<svg width="18" height="19" viewBox="0 0 18 19" fill="none" xmlns="http://www.w3.org/2000/svg">
<path d="M14.228 3.875H6.02344L10.1257 7.9773L14.228 3.875Z" fill="#ADADAD"/>
<path d="M5.625 4.27271V12.4773L9.7273 8.375L5.625 4.27271Z" fill="#ADADAD"/>
<path d="M6.02344 12.875H14.228L10.1257 8.77271L6.02344 12.875Z" fill="#ADADAD"/>
<path d="M14.6257 12.4773V4.27271L10.5234 8.375L14.6257 12.4773Z" fill="#ADADAD"/>
<path d="M15.1875 2.46875H5.0625C4.59723 2.46875 4.21875 2.84723 4.21875 3.3125V13.4375C4.21875 13.9028 4.59723 14.2812 5.0625 14.2812H15.1875C15.6528 14.2812 16.0312 13.9028 16.0312 13.4375V3.3125C16.0312 2.84723 15.6528 2.46875 15.1875 2.46875ZM15.1875 13.1562C15.1875 13.3116 15.0616 13.4375 14.9062 13.4375H5.34375C5.18843 13.4375 5.0625 13.3116 5.0625 13.1562V3.59375C5.0625 3.43843 5.18843 3.3125 5.34375 3.3125H14.9062C15.0616 3.3125 15.1875 3.43843 15.1875 3.59375V13.1562Z" fill="#ADADAD"/>
<path d="M3.375 13.7188H2.25C2.09468 13.7188 1.96875 13.8447 1.96875 14C1.96875 14.1553 2.09468 14.2812 2.25 14.2812H3.375C3.53032 14.2812 3.65625 14.1553 3.65625 14C3.65625 13.8447 3.53032 13.7188 3.375 13.7188Z" fill="#ADADAD"/>
<path d="M3.375 2.46875H2.25C2.09468 2.46875 1.96875 2.59468 1.96875 2.75C1.96875 2.90532 2.09468 3.03125 2.25 3.03125H3.375C3.53032 3.03125 3.65625 2.90532 3.65625 2.75C3.65625 2.59468 3.53032 2.46875 3.375 2.46875Z" fill="#ADADAD"/>
<path d="M14.2614 14.9263C14.1587 14.8236 13.9731 14.8168 13.8636 14.9263C13.7538 15.0361 13.7538 15.2141 13.8636 15.324L13.946 15.4064H6.30396L6.38635 15.324C6.4962 15.2141 6.49622 15.0362 6.3864 14.9263C6.2854 14.8252 6.09691 14.818 5.98865 14.9263L5.42615 15.4888C5.31628 15.5986 5.31628 15.7766 5.42615 15.8865L5.98865 16.449C6.09851 16.5588 6.27649 16.5588 6.38635 16.449C6.49621 16.3391 6.49621 16.1611 6.38635 16.0513L6.30396 15.9689H13.946L13.8636 16.0513C13.7538 16.1611 13.7538 16.3391 13.8636 16.449C13.9735 16.5588 14.1515 16.5588 14.2614 16.449L14.8239 15.8865C14.9337 15.7766 14.9337 15.5986 14.8239 15.4888C14.8239 15.4888 14.2628 14.9277 14.2614 14.9263Z" fill="#ADADAD"/>
<path d="M3.17528 4.63635C3.28514 4.74621 3.46312 4.74621 3.57299 4.63635C3.68285 4.52649 3.68285 4.34851 3.57299 4.23865L3.01049 3.67615C2.90062 3.56628 2.72264 3.56628 2.61278 3.67615C2.61278 3.67615 2.05174 4.23719 2.05028 4.23865C1.94761 4.34132 1.9408 4.52687 2.05028 4.63635C2.16014 4.74621 2.33812 4.74621 2.44799 4.63635L2.53038 4.55395V12.196L2.44799 12.1136C2.33814 12.0038 2.1602 12.0038 2.05033 12.1136C1.94928 12.2146 1.94201 12.4031 2.05028 12.5114L2.61278 13.0739C2.72264 13.1837 2.90062 13.1837 3.01049 13.0739L3.57299 12.5114C3.68285 12.4015 3.68285 12.2235 3.57299 12.1136C3.46312 12.0038 3.28514 12.0038 3.17528 12.1136L3.09288 12.196V4.55395L3.17528 4.63635Z" fill="#ADADAD"/>
<path d="M15.75 14.8438C15.5947 14.8438 15.4688 14.9697 15.4688 15.125V16.25C15.4688 16.4053 15.5947 16.5312 15.75 16.5312C15.9053 16.5312 16.0312 16.4053 16.0312 16.25V15.125C16.0312 14.9697 15.9053 14.8438 15.75 14.8438Z" fill="#ADADAD"/>
<path d="M4.5 14.8438C4.34468 14.8438 4.21875 14.9697 4.21875 15.125V16.25C4.21875 16.4053 4.34468 16.5312 4.5 16.5312C4.65532 16.5312 4.78125 16.4053 4.78125 16.25V15.125C4.78125 14.9697 4.65532 14.8438 4.5 14.8438Z" fill="#ADADAD"/>
</svg>
