<svg width="16" height="16" viewBox="0 0 16 16" fill="none" xmlns="http://www.w3.org/2000/svg">
<path d="M0.727539 0.428711L3.63672 0.428711C3.71573 0.428805 3.79174 0.459802 3.84766 0.515625C3.90367 0.571643 3.93555 0.648319 3.93555 0.727539L3.93555 1.88281L12.0645 1.88281L12.0645 0.727539C12.0645 0.648318 12.0963 0.571642 12.1523 0.515625C12.2083 0.459803 12.2843 0.428805 12.3633 0.428711L15.2725 0.428711C15.3517 0.428711 15.4284 0.459608 15.4844 0.515625C15.5404 0.571641 15.5713 0.648317 15.5713 0.727539L15.5713 3.63672C15.5712 3.71573 15.5402 3.79174 15.4844 3.84766C15.4284 3.90367 15.3517 3.93555 15.2725 3.93555L14.1172 3.93555L14.1172 12.0645H15.2725C15.3517 12.0645 15.4284 12.0963 15.4844 12.1523C15.5402 12.2083 15.5712 12.2843 15.5713 12.3633L15.5713 15.2725C15.5713 15.3517 15.5404 15.4284 15.4844 15.4844C15.4284 15.5404 15.3517 15.5713 15.2725 15.5713L12.3633 15.5713C12.2843 15.5712 12.2083 15.5402 12.1523 15.4844C12.0963 15.4284 12.0645 15.3517 12.0645 15.2725V14.1172L3.93555 14.1172L3.93555 15.2725C3.93555 15.3517 3.90367 15.4284 3.84766 15.4844C3.79174 15.5402 3.71573 15.5712 3.63672 15.5713L0.727539 15.5713C0.648317 15.5713 0.571641 15.5404 0.515625 15.4844C0.459608 15.4284 0.428711 15.3517 0.428711 15.2725L0.428711 12.3633C0.428805 12.2843 0.459803 12.2083 0.515625 12.1523C0.571642 12.0963 0.648318 12.0645 0.727539 12.0645L1.88281 12.0645L1.88281 3.93555L0.727539 3.93555C0.648319 3.93555 0.571643 3.90367 0.515625 3.84766C0.459802 3.79174 0.428805 3.71573 0.428711 3.63672L0.428711 0.727539C0.428711 0.648318 0.459608 0.571642 0.515625 0.515625C0.571642 0.459608 0.648318 0.428711 0.727539 0.428711ZM3.93555 3.63672C3.93545 3.71581 3.90359 3.79172 3.84766 3.84766C3.79172 3.90359 3.71581 3.93545 3.63672 3.93555L2.48047 3.93555L2.48047 12.0645H3.63672C3.71581 12.0645 3.79172 12.0964 3.84766 12.1523C3.90359 12.2083 3.93545 12.2842 3.93555 12.3633L3.93555 13.5195L12.0645 13.5195L12.0645 12.3633C12.0645 12.2842 12.0964 12.2083 12.1523 12.1523C12.2083 12.0964 12.2842 12.0645 12.3633 12.0645L13.5195 12.0645L13.5195 3.93555L12.3633 3.93555C12.2842 3.93545 12.2083 3.90359 12.1523 3.84766C12.0964 3.79172 12.0645 3.71581 12.0645 3.63672V2.48047L3.93555 2.48047L3.93555 3.63672Z" stroke="#ADADAD" stroke-width="0.857143"/>
</svg>
