<svg width="18" height="14" viewBox="0 0 18 14" fill="none" xmlns="http://www.w3.org/2000/svg">
<path d="M17.5 7.36842L1.91667 7.36842L1.91667 0.736842C1.91667 0.541419 1.84204 0.354001 1.7092 0.215816C1.57636 0.0776313 1.39619 0 1.20833 0C1.02047 0 0.840304 0.0776313 0.707466 0.215816C0.574628 0.354001 0.5 0.541419 0.5 0.736842L0.5 13.2632C0.5 13.4586 0.574628 13.646 0.707466 13.7842C0.840304 13.9224 1.02047 14 1.20833 14C1.39619 14 1.57636 13.9224 1.7092 13.7842C1.84204 13.646 1.91667 13.4586 1.91667 13.2632L1.91667 11.7895L16.0833 11.7895V13.2632C16.0833 13.4586 16.158 13.646 16.2908 13.7842C16.4236 13.9224 16.6038 14 16.7917 14C16.9795 14 17.1597 13.9224 17.2925 13.7842C17.4254 13.646 17.5 13.4586 17.5 13.2632L17.5 7.36842Z" fill="#ADADAD"/>
<path d="M5.5 6C5.10444 6 4.71776 5.8827 4.38886 5.66294C4.05996 5.44318 3.80362 5.13082 3.65224 4.76537C3.50087 4.39991 3.46126 3.99778 3.53843 3.60982C3.6156 3.22186 3.80608 2.86549 4.08579 2.58579C4.36549 2.30608 4.72186 2.1156 5.10982 2.03843C5.49778 1.96126 5.89991 2.00087 6.26537 2.15224C6.63082 2.30362 6.94318 2.55996 7.16294 2.88886C7.3827 3.21776 7.5 3.60444 7.5 4C7.5 4.53043 7.28929 5.03914 6.91421 5.41421C6.53914 5.78929 6.03043 6 5.5 6Z" fill="#ADADAD"/>
<path d="M17.5 6L9.25 6C9.05109 6 8.86032 5.91571 8.71967 5.76569C8.57902 5.61566 8.5 5.41217 8.5 5.2L8.5 2.8C8.5 2.58783 8.57902 2.38434 8.71967 2.23431C8.86032 2.08429 9.05109 2 9.25 2L15.25 2C15.8467 2 16.419 2.25286 16.841 2.70294C17.2629 3.15303 17.5 3.76348 17.5 4.4V6Z" fill="#ADADAD"/>
</svg>
