<svg width="22" height="22" viewBox="0 0 22 22" fill="none" xmlns="http://www.w3.org/2000/svg">
<path d="M6.41699 15.167C6.52738 15.1671 6.63287 15.211 6.71094 15.2891C6.789 15.3671 6.83292 15.4726 6.83301 15.583C6.83301 15.6935 6.78908 15.7998 6.71094 15.8779C6.63289 15.9559 6.52731 15.9999 6.41699 16C6.30648 16 6.20021 15.9561 6.12207 15.8779C6.04393 15.7998 6 15.6935 6 15.583C6.00009 15.4727 6.04411 15.3671 6.12207 15.2891C6.20021 15.2109 6.30648 15.167 6.41699 15.167ZM11 15.167C11.1105 15.167 11.2168 15.2109 11.2949 15.2891C11.3728 15.3671 11.4169 15.4728 11.417 15.583C11.417 15.6934 11.373 15.7998 11.2949 15.8779C11.2168 15.9561 11.1105 16 11 16C10.8895 16 10.7832 15.9561 10.7051 15.8779C10.627 15.7998 10.583 15.6934 10.583 15.583C10.5831 15.4728 10.6272 15.3671 10.7051 15.2891C10.7832 15.2109 10.8895 15.167 11 15.167ZM15.583 15.167C15.6935 15.167 15.7998 15.2109 15.8779 15.2891C15.9559 15.3671 15.9999 15.4727 16 15.583C16 15.6935 15.9561 15.7998 15.8779 15.8779C15.7998 15.9561 15.6935 16 15.583 16C15.4727 15.9999 15.3671 15.9559 15.2891 15.8779C15.2109 15.7998 15.167 15.6935 15.167 15.583C15.1671 15.4726 15.211 15.3671 15.2891 15.2891C15.3671 15.211 15.4726 15.1671 15.583 15.167ZM6.41699 11.5C6.5273 11.5001 6.63289 11.5441 6.71094 11.6221C6.78908 11.7002 6.83301 11.8065 6.83301 11.917C6.83292 12.0274 6.789 12.1329 6.71094 12.2109C6.63287 12.289 6.52738 12.3329 6.41699 12.333C6.30649 12.333 6.20021 12.2891 6.12207 12.2109C6.04411 12.1329 6.00009 12.0273 6 11.917C6 11.8065 6.04393 11.7002 6.12207 11.6221C6.20021 11.5439 6.30649 11.5 6.41699 11.5ZM11 11.5C11.1105 11.5 11.2168 11.5439 11.2949 11.6221C11.373 11.7002 11.417 11.8066 11.417 11.917C11.4169 12.0272 11.3728 12.1329 11.2949 12.2109C11.2168 12.2891 11.1105 12.333 11 12.333C10.8895 12.333 10.7832 12.2891 10.7051 12.2109C10.6272 12.1329 10.5831 12.0272 10.583 11.917C10.583 11.8066 10.627 11.7002 10.7051 11.6221C10.7832 11.5439 10.8895 11.5 11 11.5ZM15.583 11.5C15.6935 11.5 15.7998 11.5439 15.8779 11.6221C15.9561 11.7002 16 11.8065 16 11.917C15.9999 12.0273 15.9559 12.1329 15.8779 12.2109C15.7998 12.2891 15.6935 12.333 15.583 12.333C15.4726 12.3329 15.3671 12.289 15.2891 12.2109C15.211 12.1329 15.1671 12.0274 15.167 11.917C15.167 11.8065 15.2109 11.7002 15.2891 11.6221C15.3671 11.5441 15.4727 11.5001 15.583 11.5Z" fill="#888888" stroke="#ADADAD"/>
<path d="M15.585 2.10425C15.6347 2.10425 15.6826 2.12379 15.7178 2.15894C15.7529 2.1941 15.7725 2.24202 15.7725 2.29175V3.51245L16.2344 3.54858C16.4639 3.56624 16.68 3.58733 16.8828 3.61401V3.61499C17.8384 3.74382 18.5549 3.99663 19.1172 4.50366L19.2275 4.60815C19.7326 5.11411 20.009 5.74918 20.1621 6.58276L20.2197 6.9519C20.3545 7.95609 20.3555 9.25099 20.3555 10.949V12.8845C20.3555 14.3705 20.3552 15.5486 20.2646 16.4919L20.2197 16.8816C20.0824 17.9004 19.8046 18.6472 19.2275 19.2253C18.7216 19.7306 18.0865 20.0067 17.2529 20.1599L16.8828 20.2185C15.8788 20.3532 14.5843 20.3542 12.8867 20.3542H9.11816C7.63216 20.3542 6.4541 20.3539 5.51074 20.2634L5.12109 20.2185C4.10197 20.0811 3.35457 19.8028 2.77637 19.2253C2.27148 18.7194 1.99589 18.0842 1.84277 17.2507L1.78418 16.8816C1.64944 15.8774 1.64844 14.5825 1.64844 12.8845V10.949C1.64844 9.46297 1.64875 8.28491 1.73926 7.34155L1.78418 6.9519C1.92152 5.9332 2.19942 5.18626 2.77637 4.60815C3.35457 4.03072 4.10196 3.75239 5.12109 3.61499L5.12012 3.61401C5.32404 3.58723 5.54108 3.56628 5.77051 3.54858L6.23145 3.51245V2.29175C6.23145 2.2421 6.25107 2.19408 6.28613 2.15894C6.32099 2.12403 6.36866 2.10459 6.41797 2.10425C6.46761 2.10425 6.51564 2.12389 6.55078 2.15894C6.58594 2.1941 6.60547 2.24202 6.60547 2.29175V3.50073L7.11523 3.49097C7.7162 3.47917 8.37976 3.47925 9.11621 3.47925H12.8867C13.6239 3.47925 14.2868 3.47917 14.8877 3.49097L15.3975 3.50073V2.29175C15.3975 2.24203 15.417 2.1941 15.4521 2.15894C15.4873 2.12379 15.5353 2.10426 15.585 2.10425ZM2.03418 8.92749C2.02215 9.53199 2.02246 10.2185 2.02246 10.9998V12.8337C2.02246 14.5675 2.02327 15.8494 2.15527 16.8318C2.28652 17.8096 2.54605 18.4638 3.04199 18.9597C3.5379 19.4556 4.19202 19.7152 5.16895 19.8464C6.15309 19.9784 7.4342 19.9792 9.16797 19.9792H12.835C14.5687 19.9792 15.8506 19.9784 16.833 19.8464C17.811 19.7152 18.4659 19.4557 18.9619 18.9597C19.4576 18.4638 19.7164 17.8095 19.8477 16.8328C19.9797 15.8495 19.9805 14.5675 19.9805 12.8337V10.9998C19.9805 10.2185 19.9808 9.53199 19.9688 8.92749L19.959 8.43726H2.04395L2.03418 8.92749ZM9.16797 3.85327C7.43381 3.85327 6.153 3.85509 5.16895 3.98706C4.19202 4.11833 3.5379 4.37787 3.04199 4.87378C2.5461 5.36969 2.28654 6.02379 2.15527 7.00073V7.00171C2.13335 7.16616 2.11487 7.33874 2.09961 7.51929L2.05371 8.06128H19.9502L19.9043 7.51929C19.889 7.33869 19.8705 7.16575 19.8486 7.00073L19.8477 6.99976C19.7164 6.02303 19.4576 5.36867 18.9619 4.8728C18.4659 4.37679 17.811 4.11733 16.833 3.98608C15.8506 3.85409 14.5687 3.85327 12.835 3.85327H9.16797Z" fill="#888888" stroke="#ADADAD"/>
</svg>
