<svg width="16" height="12" viewBox="0 0 16 12" fill="none" xmlns="http://www.w3.org/2000/svg">
<path d="M0.5 11.1741V6.67407C0.5 6.33657 0.56875 6.03032 0.70625 5.75532C0.84375 5.48032 1.025 5.23657 1.25 5.02407V2.92407C1.25 2.29907 1.46875 1.76782 1.90625 1.33032C2.34375 0.892822 2.875 0.674072 3.5 0.674072H6.5C6.7875 0.674072 7.05625 0.727197 7.30625 0.833447C7.55625 0.939697 7.7875 1.08657 8 1.27407C8.2125 1.08657 8.44375 0.939697 8.69375 0.833447C8.94375 0.727197 9.2125 0.674072 9.5 0.674072H12.5C13.125 0.674072 13.6563 0.892822 14.0938 1.33032C14.5313 1.76782 14.75 2.29907 14.75 2.92407V5.02407C14.975 5.23657 15.1563 5.48032 15.2938 5.75532C15.4313 6.03032 15.5 6.33657 15.5 6.67407V11.1741H14V9.67407H2V11.1741H0.5ZM8.75 4.42407H13.25V2.92407C13.25 2.71157 13.1781 2.53345 13.0344 2.3897C12.8906 2.24595 12.7125 2.17407 12.5 2.17407H9.5C9.2875 2.17407 9.10938 2.24595 8.96563 2.3897C8.82188 2.53345 8.75 2.71157 8.75 2.92407V4.42407ZM2.75 4.42407H7.25V2.92407C7.25 2.71157 7.17813 2.53345 7.03438 2.3897C6.89063 2.24595 6.7125 2.17407 6.5 2.17407H3.5C3.2875 2.17407 3.10938 2.24595 2.96563 2.3897C2.82188 2.53345 2.75 2.71157 2.75 2.92407V4.42407ZM2 8.17407H14V6.67407C14 6.46157 13.9281 6.28345 13.7844 6.1397C13.6406 5.99595 13.4625 5.92407 13.25 5.92407H2.75C2.5375 5.92407 2.35938 5.99595 2.21563 6.1397C2.07188 6.28345 2 6.46157 2 6.67407V8.17407Z" fill="#54627B"/>
</svg>
