<svg width="20" height="20" viewBox="0 0 20 20" fill="none" xmlns="http://www.w3.org/2000/svg">
<g clip-path="url(#clip0_240_5233)">
<mask id="mask0_240_5233" style="mask-type:luminance" maskUnits="userSpaceOnUse" x="0" y="0" width="20" height="20">
<path d="M0 0H20V20H0V0Z" fill="white"/>
</mask>
<g mask="url(#mask0_240_5233)">
<path d="M15.8333 2.5H4.16667C3.25 2.5 2.5 3.25 2.5 4.16667V15.8333C2.5 16.75 3.25 17.5 4.16667 17.5H15.8333C16.75 17.5 17.5 16.75 17.5 15.8333V4.16667C17.5 3.25 16.75 2.5 15.8333 2.5ZM7.08333 5C7.65833 5 8.125 5.46667 8.125 6.04167C8.125 6.61667 7.65833 7.08333 7.08333 7.08333C6.50833 7.08333 6.04167 6.61667 6.04167 6.04167C6.04167 5.46667 6.50833 5 7.08333 5ZM9.16667 10.8333C9.16667 11.2917 8.79167 11.6667 8.33333 11.6667V14.1667C8.33333 14.625 7.95833 15 7.5 15H6.66667C6.20833 15 5.83333 14.625 5.83333 14.1667V11.6667C5.375 11.6667 5 11.2917 5 10.8333V9.58333C5 8.66667 5.75 7.91667 6.66667 7.91667H7.5C8.41667 7.91667 9.16667 8.66667 9.16667 9.58333V10.8333ZM14.6 11.4667L13.2667 13.6C13.1 13.8583 12.725 13.8583 12.5583 13.6L11.225 11.4667C11.0583 11.1917 11.2583 10.8333 11.5833 10.8333H14.25C14.575 10.8333 14.775 11.1917 14.6 11.4667ZM14.25 9.16667H11.5833C11.2583 9.16667 11.0583 8.80833 11.2333 8.525L12.5667 6.39167C12.7333 6.13333 13.1083 6.13333 13.275 6.39167L14.6083 8.525C14.775 8.80833 14.575 9.16667 14.25 9.16667Z" fill="#ADADAD"/>
</g>
</g>
<defs>
<clipPath id="clip0_240_5233">
<rect width="20" height="20" fill="white"/>
</clipPath>
</defs>
</svg>
