<svg width="20" height="20" viewBox="0 0 20 20" fill="none" xmlns="http://www.w3.org/2000/svg">
<g clip-path="url(#clip0_240_5375)">
<path d="M15.8758 2.31941L14.05 1.17434H14.7097C15.0252 1.17434 15.2966 0.931914 15.3115 0.616797C15.3273 0.280352 15.0593 0.00257812 14.7263 0.00257812C10.6601 0.00257812 13.7326 0 9.66582 0C9.34227 0 9.07961 0.262305 9.07961 0.585859V1.35109H8.41727C5.89355 1.35109 3.84766 3.39699 3.84766 5.9207V19.3976C3.84766 19.713 4.09008 19.9845 4.4052 19.9993C4.74164 20.0152 5.01941 19.7471 5.01941 19.4141V5.9207C5.01941 4.0441 6.5407 2.52285 8.41727 2.52285H9.07961V3.60191C7.73992 4.26434 6.86504 5.64816 6.86504 7.16441V15.8209H14.8095V13.1388C14.5031 13.1388 12.1341 13.1388 11.827 13.1388C11.3888 13.1388 11.0325 12.7825 11.0325 12.3447V7.84012C11.0325 7.40227 11.3888 7.04566 11.827 7.04566H14.8075C14.7634 5.57473 13.8998 4.24598 12.5949 3.60152V1.64488L15.2533 3.31211C15.5274 3.48398 15.889 3.40117 16.0609 3.12703C16.2328 2.85289 16.1499 2.49133 15.8758 2.31941Z" fill="#ADADAD"/>
<path d="M6.86523 16.9922V18.8127C6.86523 19.4654 7.39641 19.9965 8.0491 19.9965H13.6258C14.2785 19.9965 14.8096 19.4654 14.8096 18.8127V16.9922C14.5073 16.9922 7.52977 16.9922 6.86523 16.9922Z" fill="#ADADAD"/>
<path d="M12.2031 8.21777V11.9673H14.8083V8.21777C14.5438 8.21777 12.4586 8.21777 12.2031 8.21777Z" fill="#ADADAD"/>
</g>
<defs>
<clipPath id="clip0_240_5375">
<rect width="20" height="20" fill="white"/>
</clipPath>
</defs>
</svg>
