<svg width="36" height="28" viewBox="0 0 36 28" fill="none" xmlns="http://www.w3.org/2000/svg">
<path d="M12.5447 19.5654H25.003C25.8042 19.5654 26.4836 19.2866 27.0414 18.7288C27.5991 18.1711 27.878 17.4916 27.878 16.6904C27.878 15.8896 27.5991 15.2103 27.0414 14.6525C26.4836 14.0945 25.8042 13.8154 25.003 13.8154H24.0226C23.9639 12.2601 23.4437 10.913 22.462 9.77415C21.48 8.63501 20.236 8.06544 18.7298 8.06544C17.4865 8.06544 16.3697 8.41315 15.3794 9.10859C14.3892 9.80402 13.7416 10.7341 13.4369 11.8988H12.4235C11.3642 11.8988 10.4808 12.2711 9.77319 13.0157C9.0653 13.7603 8.71135 14.6658 8.71135 15.7321C8.71135 16.8134 9.07999 17.7227 9.81727 18.46C10.5545 19.197 11.4637 19.5654 12.5447 19.5654ZM12.5447 17.6488C12.0016 17.6488 11.5464 17.4651 11.1791 17.0977C10.8117 16.7304 10.628 16.2752 10.628 15.7321C10.628 15.1891 10.8117 14.7338 11.1791 14.3665C11.5464 13.9991 12.0016 13.8154 12.5447 13.8154H15.0512V13.3363C15.0512 12.4099 15.3849 11.6193 16.0522 10.9644C16.7192 10.3095 17.5897 9.98211 18.6636 9.98211C19.7373 9.98211 20.6016 10.4079 21.2564 11.2596C21.9113 12.1109 22.2387 13.0735 22.2387 14.1475V15.7321H25.003C25.2586 15.7321 25.4822 15.8279 25.6739 16.0196C25.8655 16.2113 25.9614 16.4349 25.9614 16.6904C25.9614 16.946 25.8655 17.1696 25.6739 17.3613C25.4822 17.5529 25.2586 17.6488 25.003 17.6488H12.5447ZM3.84637 27.4166C2.96407 27.4166 2.22743 27.1211 1.63646 26.5301C1.04549 25.9392 0.75 25.2025 0.75 24.3202V3.67963C0.75 2.79732 1.04549 2.06068 1.63646 1.46971C2.22743 0.878738 2.96407 0.583252 3.84637 0.583252H32.1536C33.0359 0.583252 33.7726 0.878738 34.3635 1.46971C34.9545 2.06068 35.25 2.79732 35.25 3.67963V24.3202C35.25 25.2025 34.9545 25.9392 34.3635 26.5301C33.7726 27.1211 33.0359 27.4166 32.1536 27.4166H3.84637ZM3.84637 25.4999H32.1536C32.4488 25.4999 32.7192 25.3771 32.9649 25.1314C33.2105 24.8858 33.3333 24.6154 33.3333 24.3202V3.67963C33.3333 3.38446 33.2105 3.11405 32.9649 2.8684C32.7192 2.62275 32.4488 2.49992 32.1536 2.49992H3.84637C3.55121 2.49992 3.2808 2.62275 3.03515 2.8684C2.78949 3.11405 2.66667 3.38446 2.66667 3.67963V24.3202C2.66667 24.6154 2.78949 24.8858 3.03515 25.1314C3.2808 25.3771 3.55121 25.4999 3.84637 25.4999Z" fill="#54627B"/>
</svg>
