<svg width="46" height="46" viewBox="0 0 46 46" fill="none" xmlns="http://www.w3.org/2000/svg">
<path d="M22.4292 38.2227C22.6796 38.2227 22.9363 38.1661 23.1992 38.0531C23.4621 37.9403 23.6747 37.8028 23.837 37.6405L38.7798 22.6977C39.2612 22.2163 39.6329 21.7237 39.8948 21.2199C40.1564 20.7162 40.2872 20.1632 40.2872 19.5611C40.2872 18.9516 40.1564 18.3599 39.8948 17.7862C39.6329 17.2125 39.2612 16.6884 38.7798 16.2141L31.5923 9.02657C31.1179 8.54517 30.6308 8.19203 30.1308 7.96714C29.6306 7.74225 29.0759 7.6298 28.4667 7.6298C27.8645 7.6298 27.3055 7.74225 26.7896 7.96714C26.2734 8.19203 25.7869 8.54517 25.3301 9.02657L23.6602 10.6965L27.206 14.2533C27.5868 14.6268 27.8706 15.0519 28.0575 15.5289C28.244 16.0055 28.3373 16.4894 28.3373 16.9807C28.3373 17.9787 28.0112 18.8038 27.3588 19.4561C26.7065 20.1084 25.8816 20.4346 24.8839 20.4346C24.3923 20.4346 23.9125 20.3597 23.4445 20.2098C22.9765 20.06 22.5557 19.7982 22.1819 19.4245L18.5144 15.7684L10.2397 24.0432C10.0458 24.2374 9.90025 24.458 9.80314 24.7049C9.70603 24.9518 9.65747 25.2005 9.65747 25.451C9.65747 25.9033 9.8025 26.2763 10.0926 26.5698C10.3823 26.8634 10.7533 27.0102 11.2057 27.0102C11.4561 27.0102 11.7128 26.9536 11.9757 26.8406C12.2386 26.7278 12.4512 26.5903 12.6135 26.428L18.6878 20.3536L20.0444 21.7101L13.981 27.7845C13.7868 27.9784 13.6411 28.1988 13.544 28.4458C13.4472 28.6927 13.3988 28.9415 13.3988 29.1923C13.3988 29.62 13.5499 29.985 13.8521 30.2872C14.1543 30.5894 14.5191 30.7405 14.9465 30.7405C15.1973 30.7405 15.4541 30.6839 15.717 30.5709C15.9799 30.4578 16.1925 30.3201 16.3548 30.1578L22.8715 23.6527L24.228 25.0087L17.7223 31.5254C17.5527 31.6876 17.4133 31.9002 17.304 32.1631C17.1944 32.426 17.1397 32.6829 17.1397 32.9336C17.1397 33.3611 17.2908 33.7259 17.5929 34.0281C17.8955 34.3306 18.2604 34.4818 18.6878 34.4818C18.9386 34.4818 19.1875 34.4333 19.4344 34.3362C19.6813 34.239 19.9017 34.0934 20.0956 33.8992L26.6123 27.3935L27.9688 28.75L21.4522 35.2667C21.2583 35.4609 21.1127 35.6938 21.0156 35.9653C20.9185 36.2369 20.87 36.4855 20.87 36.7114C20.87 37.1637 21.0291 37.5287 21.3472 37.8063C21.6654 38.0839 22.026 38.2227 22.4292 38.2227ZM22.4182 40.1393C21.4327 40.1393 20.5892 39.7789 19.8877 39.0579C19.1862 38.3366 18.8784 37.4463 18.9643 36.387C17.8782 36.3994 16.9739 36.0752 16.2513 35.4143C15.529 34.753 15.1863 33.8303 15.223 32.6461C14.0388 32.6583 13.1057 32.3198 12.4237 31.6308C11.7417 30.9414 11.4315 30.0328 11.4932 28.9048C10.4265 28.9173 9.53449 28.6175 8.81701 28.0054C8.09954 27.3937 7.7408 26.5422 7.7408 25.451C7.7408 24.9597 7.836 24.4677 8.02639 23.9751C8.21678 23.4822 8.49869 23.0491 8.87212 22.6756L18.5144 13.0444L23.4647 17.9947C23.6269 18.1643 23.8272 18.3037 24.0655 18.413C24.3038 18.5222 24.573 18.5768 24.8729 18.5768C25.2831 18.5768 25.6455 18.4337 25.9602 18.1475C26.2748 17.8613 26.4321 17.4883 26.4321 17.0287C26.4321 16.729 26.3774 16.46 26.2678 16.2217C26.1585 15.9834 26.0191 15.7831 25.8495 15.6209L19.2557 9.02657C18.7813 8.54517 18.2879 8.19203 17.7755 7.96714C17.2631 7.74225 16.7023 7.6298 16.0932 7.6298C15.491 7.6298 14.9443 7.74225 14.453 7.96714C13.9613 8.19203 13.4747 8.54517 12.993 9.02657L7.15814 14.8724C6.74797 15.2829 6.41639 15.772 6.16339 16.3396C5.91007 16.9073 5.77606 17.4933 5.76137 18.0977C5.74667 18.5302 5.78357 18.9461 5.87205 19.3454C5.96054 19.7447 6.10062 20.1201 6.29228 20.4715L4.83993 21.9238C4.51793 21.4102 4.26605 20.8185 4.08428 20.149C3.90252 19.4794 3.81899 18.7957 3.83368 18.0977C3.84837 17.2278 4.02279 16.3942 4.35693 15.5969C4.69107 14.7996 5.16912 14.0901 5.79108 13.4684L11.589 7.67053C12.2573 7.00928 12.9644 6.51782 13.7103 6.19614C14.4558 5.87414 15.2624 5.71313 16.1301 5.71313C16.9973 5.71313 17.7977 5.87414 18.5312 6.19614C19.2646 6.51782 19.9618 7.00928 20.6227 7.67053L22.2926 9.33995L23.9625 7.67053C24.6308 7.00928 25.3317 6.51782 26.0651 6.19614C26.7985 5.87414 27.5991 5.71313 28.4667 5.71313C29.334 5.71313 30.1406 5.87414 30.8865 6.19614C31.6321 6.51782 32.3355 7.00928 32.9967 7.67053L40.1363 14.8101C40.7972 15.471 41.3071 16.2131 41.6658 17.0363C42.0245 17.8595 42.2039 18.7048 42.2039 19.5721C42.2039 20.4397 42.0245 21.2402 41.6658 21.9737C41.3071 22.7071 40.7972 23.4043 40.1363 24.0652L25.1935 38.997C24.7955 39.395 24.3623 39.6849 23.894 39.8667C23.426 40.0485 22.9341 40.1393 22.4182 40.1393Z" fill="#54627B"/>
</svg>
