<svg width="46" height="46" viewBox="0 0 46 46" fill="none" xmlns="http://www.w3.org/2000/svg">
<path d="M23.0026 21.5994C25.2585 21.5994 27.1616 20.7995 28.7119 19.1997C30.2625 17.6003 31.0378 15.6726 31.0378 13.4167V7.66667H14.9675V13.4167C14.9675 15.6726 15.7428 17.6003 17.2933 19.1997C18.8436 20.7995 20.7467 21.5994 23.0026 21.5994ZM9.58594 40.25V38.3333H13.0508V32.5833C13.0508 30.2169 13.7763 28.1178 15.2272 26.2861C16.6781 24.4541 18.5376 23.3587 20.8056 23C18.5376 22.6167 16.6781 21.5152 15.2272 19.6957C13.7763 17.8761 13.0508 15.7831 13.0508 13.4167V7.66667H9.58594V5.75H36.4193V7.66667H32.9544V13.4167C32.9544 15.7831 32.229 17.8761 30.778 19.6957C29.3271 21.5152 27.4676 22.6167 25.1996 23C27.4676 23.3587 29.3271 24.4541 30.778 26.2861C32.229 28.1178 32.9544 30.2169 32.9544 32.5833V38.3333H36.4193V40.25H9.58594Z" fill="#54627B"/>
</svg>
