<svg width="46" height="46" viewBox="0 0 46 46" fill="none" xmlns="http://www.w3.org/2000/svg">
<path d="M39.3016 20.8846V36.1955C39.3016 37.0778 39.0061 37.8144 38.4151 38.4054C37.8241 38.9963 37.0877 39.2918 36.2057 39.2918H9.81461C8.9323 39.2918 8.19566 38.9963 7.60469 38.4054C7.01372 37.8144 6.71823 37.0778 6.71823 36.1955V20.8109C5.90972 20.2138 5.31811 19.4312 4.9434 18.4629C4.56869 17.4947 4.56071 16.4615 4.91944 15.3632L6.78484 9.21502C7.04039 8.43366 7.45248 7.82048 8.02109 7.3755C8.59002 6.93083 9.29344 6.7085 10.1313 6.7085H35.8147C36.6526 6.7085 37.3541 6.91677 37.9192 7.33333C38.4846 7.74988 38.8988 8.35252 39.1617 9.14123L41.1004 15.3632C41.4591 16.4615 41.4511 17.5033 41.0764 18.4888C40.7017 19.474 40.1101 20.2726 39.3016 20.8846ZM27.2266 20.1252C28.4577 20.1252 29.3768 19.7805 29.9837 19.0911C30.5906 18.4021 30.8462 17.6902 30.7504 16.9555L29.4748 8.62516H23.9682V16.6752C23.9682 17.6162 24.2901 18.4265 24.9338 19.106C25.5778 19.7854 26.342 20.1252 27.2266 20.1252ZM18.6016 20.1252C19.6311 20.1252 20.4636 19.7854 21.099 19.106C21.734 18.4265 22.0516 17.6162 22.0516 16.6752V8.62516H16.545L15.2694 17.1026C15.1909 17.6974 15.4507 18.3499 16.049 19.06C16.6474 19.7701 17.4982 20.1252 18.6016 20.1252ZM10.0724 20.1252C10.9177 20.1252 11.6358 19.8377 12.2267 19.2627C12.8177 18.6877 13.1857 17.9702 13.3307 17.1102L14.5325 8.62516H10.1313C9.71351 8.62516 9.38176 8.71732 9.13611 8.90164C8.89046 9.08596 8.70614 9.36244 8.58315 9.73108L6.81407 15.783C6.49941 16.7905 6.6339 17.7661 7.21753 18.7097C7.80115 19.6533 8.75278 20.1252 10.0724 20.1252ZM35.9474 20.1252C37.0948 20.1252 38.0115 19.6779 38.6973 18.7835C39.3829 17.8891 39.5523 16.8889 39.2057 15.783L37.3408 9.65729C37.2178 9.28865 37.0335 9.02447 36.7879 8.86475C36.5422 8.70502 36.2105 8.62516 35.7926 8.62516H31.4873L32.6891 17.1102C32.8341 17.9702 33.2021 18.6877 33.7931 19.2627C34.384 19.8377 35.1022 20.1252 35.9474 20.1252ZM9.81461 37.3752H36.2057C36.5494 37.3752 36.8319 37.2646 37.0533 37.0436C37.2744 36.8222 37.3849 36.5395 37.3849 36.1955V21.7984C37.1268 21.8869 36.8816 21.9497 36.6494 21.9867C36.4175 22.0235 36.1835 22.0418 35.9474 22.0418C35.0849 22.0418 34.3262 21.8735 33.6714 21.5368C33.0165 21.2001 32.3942 20.6633 31.8045 19.9263C31.3033 20.5502 30.6854 21.0587 29.9506 21.452C29.2159 21.8452 28.3226 22.0418 27.2707 22.0418C26.5065 22.0418 25.7798 21.8637 25.0904 21.5076C24.4014 21.1511 23.7079 20.624 23.0099 19.9263C22.3685 20.624 21.6577 21.1511 20.8776 21.5076C20.0975 21.8637 19.3535 22.0418 18.6457 22.0418C17.8422 22.0418 17.0591 21.8882 16.2963 21.5809C15.5331 21.2739 14.8641 20.7224 14.2891 19.9263C13.348 20.8674 12.5254 21.4552 11.8214 21.6896C11.1173 21.9244 10.5343 22.0418 10.0724 22.0418C9.83665 22.0418 9.59899 22.0235 9.3594 21.9867C9.11982 21.9497 8.87832 21.8869 8.6349 21.7984V36.1955C8.6349 36.5395 8.74543 36.8222 8.96648 37.0436C9.18786 37.2646 9.47057 37.3752 9.81461 37.3752Z" fill="#54627B"/>
</svg>
