<svg width="36" height="32" viewBox="0 0 36 32" fill="none" xmlns="http://www.w3.org/2000/svg">
<path d="M17.5577 31.3334V29.4167H30.237C30.5564 29.4167 30.8329 29.3185 31.0664 29.1221C31.2999 28.9253 31.4167 28.6672 31.4167 28.3477V15.1448C31.4167 11.5549 30.0966 8.55639 27.4564 6.14937C24.8158 3.74268 21.6637 2.53933 18 2.53933C14.3363 2.53933 11.1842 3.74268 8.54365 6.14937C5.90344 8.55639 4.58333 11.5549 4.58333 15.1448V26.0257H3.625C2.84108 26.0257 2.16594 25.7609 1.59956 25.2312C1.03319 24.7019 0.75 24.0453 0.75 23.2614V19.6489C0.75 19.0765 0.936076 18.5686 1.30823 18.1252C1.6807 17.6815 2.13351 17.3208 2.66667 17.0432L2.69973 14.6881C2.75883 12.6878 3.21164 10.835 4.05817 9.12979C4.90469 7.42428 6.01908 5.93998 7.40131 4.67689C8.78355 3.41381 10.3894 2.42976 12.2189 1.72475C14.0483 1.01942 15.9754 0.666748 18 0.666748C20.0246 0.666748 21.9499 1.01942 23.7759 1.72475C25.6015 2.42976 27.2073 3.41205 28.5934 4.67162C29.9792 5.93087 31.0935 7.4131 31.9366 9.11829C32.7793 10.8238 33.2338 12.6766 33.3003 14.6766L33.3333 16.9843C33.8419 17.2226 34.2885 17.5433 34.6731 17.9465C35.0577 18.3493 35.25 18.8332 35.25 19.3983V23.5489C35.25 24.114 35.0577 24.5981 34.6731 25.0012C34.2885 25.404 33.8419 25.7246 33.3333 25.9629V28.3477C33.3333 29.1808 33.0318 29.8867 32.4287 30.4652C31.8252 31.044 31.0947 31.3334 30.237 31.3334H17.5577ZM12.987 18.9489C12.5915 18.9489 12.247 18.8144 11.9534 18.5454C11.6598 18.2761 11.513 17.9437 11.513 17.5483C11.513 17.1525 11.6598 16.814 11.9534 16.5329C12.247 16.2515 12.5915 16.1108 12.987 16.1108C13.3827 16.1108 13.7274 16.2515 14.021 16.5329C14.3146 16.814 14.4614 17.1525 14.4614 17.5483C14.4614 17.9437 14.3146 18.2761 14.021 18.5454C13.7274 18.8144 13.3827 18.9489 12.987 18.9489ZM23.013 18.9489C22.6172 18.9489 22.2726 18.8144 21.979 18.5454C21.6854 18.2761 21.5386 17.9437 21.5386 17.5483C21.5386 17.1525 21.6854 16.814 21.979 16.5329C22.2726 16.2515 22.6172 16.1108 23.013 16.1108C23.4085 16.1108 23.753 16.2515 24.0466 16.5329C24.3402 16.814 24.487 17.1525 24.487 17.5483C24.487 17.9437 24.3402 18.2761 24.0466 18.5454C23.753 18.8144 23.4085 18.9489 23.013 18.9489ZM7.87473 15.9042C7.70031 13.034 8.62431 10.5879 10.6467 8.56581C12.6691 6.54341 15.1522 5.53221 18.0958 5.53221C20.5702 5.53221 22.7628 6.27491 24.6734 7.76033C26.584 9.24575 27.7506 11.1974 28.1732 13.6153C25.6349 13.5833 23.279 12.9358 21.1055 11.6727C18.932 10.4096 17.264 8.6527 16.1015 6.40189C15.6396 8.61341 14.6783 10.5516 13.2174 12.2166C11.7566 13.8812 9.97572 15.1104 7.87473 15.9042Z" fill="#54627B"/>
</svg>
