<svg width="46" height="46" viewBox="0 0 46 46" fill="none" xmlns="http://www.w3.org/2000/svg">
<path d="M23 40.25C20.6262 40.25 18.3901 39.7961 16.2917 38.8882C14.1932 37.98 12.3657 36.7476 10.809 35.191C9.25239 33.6343 8.01997 31.8068 7.11179 29.7083C6.20393 27.6099 5.75 25.3738 5.75 23C5.75 20.6189 6.20393 18.3808 7.11179 16.2859C8.01997 14.1913 9.25239 12.3657 10.809 10.809C12.3657 9.25239 14.1932 8.01997 16.2917 7.11179C18.3901 6.20393 20.6262 5.75 23 5.75C25.3811 5.75 27.6192 6.20393 29.7141 7.11179C31.8087 8.01997 33.6343 9.25239 35.191 10.809C36.7476 12.3657 37.98 14.1913 38.8882 16.2859C39.7961 18.3808 40.25 20.6189 40.25 23C40.25 25.3738 39.7961 27.6099 38.8882 29.7083C37.98 31.8068 36.7476 33.6343 35.191 35.191C33.6343 36.7476 31.8087 37.98 29.7141 38.8882C27.6192 39.7961 25.3811 40.25 23 40.25ZM23 38.3482C24.1254 36.9033 25.0531 35.4842 25.783 34.0908C26.5126 32.6977 27.106 31.1386 27.5631 29.4136H18.4369C18.9432 31.2367 19.5489 32.845 20.2539 34.2384C20.9592 35.6315 21.8746 37.0014 23 38.3482ZM20.5601 38.0607C19.6656 37.0065 18.8491 35.7035 18.1106 34.1516C17.3723 32.5998 16.8226 31.0205 16.4613 29.4136H9.11135C10.2099 31.797 11.7672 33.7517 13.7832 35.2777C15.7996 36.8037 18.0585 37.7313 20.5601 38.0607ZM25.4399 38.0607C27.9415 37.7313 30.2004 36.8037 32.2168 35.2777C34.2328 33.7517 35.7901 31.797 36.8886 29.4136H29.5387C29.0548 31.045 28.4435 32.6367 27.7049 34.1885C26.9667 35.7404 26.2117 37.0311 25.4399 38.0607ZM8.33031 27.497H16.0631C15.9181 26.7105 15.8155 25.9443 15.7555 25.1984C15.6951 24.4528 15.6649 23.72 15.6649 23C15.6649 22.28 15.6951 21.5472 15.7555 20.8016C15.8155 20.0557 15.9181 19.2895 16.0631 18.503H8.33031C8.1214 19.1665 7.95848 19.8896 7.84156 20.6722C7.72496 21.4548 7.66667 22.2308 7.66667 23C7.66667 23.7692 7.72496 24.5452 7.84156 25.3278C7.95848 26.1104 8.1214 26.8335 8.33031 27.497ZM17.9798 27.497H28.0202C28.1653 26.7105 28.2678 25.9566 28.3279 25.2353C28.3882 24.5143 28.4184 23.7692 28.4184 23C28.4184 22.2308 28.3882 21.4857 28.3279 20.7647C28.2678 20.0434 28.1653 19.2895 28.0202 18.503H17.9798C17.8347 19.2895 17.7322 20.0434 17.6721 20.7647C17.6118 21.4857 17.5816 22.2308 17.5816 23C17.5816 23.7692 17.6118 24.5143 17.6721 25.2353C17.7322 25.9566 17.8347 26.7105 17.9798 27.497ZM29.9369 27.497H37.6697C37.8786 26.8335 38.0415 26.1104 38.1584 25.3278C38.275 24.5452 38.3333 23.7692 38.3333 23C38.3333 22.2308 38.275 21.4548 38.1584 20.6722C38.0415 19.8896 37.8786 19.1665 37.6697 18.503H29.9369C30.0819 19.2895 30.1845 20.0557 30.2445 20.8016C30.3049 21.5472 30.3351 22.28 30.3351 23C30.3351 23.72 30.3049 24.4528 30.2445 25.1984C30.1845 25.9443 30.0819 26.7105 29.9369 27.497ZM29.5387 16.5864H36.8886C35.7655 14.1538 34.2266 12.1991 32.2719 10.7223C30.3172 9.24552 28.0399 8.30555 25.4399 7.90242C26.3344 9.07957 27.1386 10.4255 27.8525 11.9404C28.5665 13.4555 29.1285 15.0041 29.5387 16.5864ZM18.4369 16.5864H27.5631C27.0568 14.7879 26.4326 13.1613 25.6905 11.7065C24.9485 10.2518 24.0516 8.9002 23 7.65181C21.9484 8.9002 21.0515 10.2518 20.3095 11.7065C19.5674 13.1613 18.9432 14.7879 18.4369 16.5864ZM9.11135 16.5864H16.4613C16.8715 15.0041 17.4335 13.4555 18.1475 11.9404C18.8614 10.4255 19.6656 9.07957 20.5601 7.90242C17.9355 8.30555 15.6521 9.25159 13.7099 10.7405C11.7674 12.2298 10.2345 14.1784 9.11135 16.5864Z" fill="#54627B"/>
</svg>
