<svg width="20" height="20" viewBox="0 0 20 20" fill="none" xmlns="http://www.w3.org/2000/svg">
<path fill-rule="evenodd" clip-rule="evenodd" d="M17.6161 4.03355V5.93911H16.2717C14.775 5.94057 13.306 5.5354 12.0217 4.76688L10.3217 3.73911C10.2228 3.6793 10.1095 3.64769 9.99392 3.64769C9.87837 3.64769 9.76502 3.6793 9.66615 3.73911L7.9717 4.76133C6.68705 5.52907 5.21829 5.93418 3.7217 5.93355H2.38281V4.03355C2.38281 3.86506 2.44935 3.7034 2.56797 3.58374C2.68659 3.46408 2.84767 3.39613 3.01615 3.39466H3.72726C5.33877 3.39505 6.91977 2.95514 8.29948 2.12244L9.99948 1.11133L11.6939 2.12799C13.0745 2.95861 14.6549 3.39836 16.2661 3.40022H16.9828C17.1499 3.40307 17.3093 3.47072 17.4275 3.58888C17.5456 3.70704 17.6133 3.86647 17.6161 4.03355Z" fill="#ADADAD"/>
<path fill-rule="evenodd" clip-rule="evenodd" d="M16.2717 7.22276C14.5451 7.22195 12.8513 6.75145 11.3717 5.86165L9.99948 5.02832L8.62726 5.84499C7.14898 6.73985 5.45527 7.21608 3.72726 7.22276H2.38281V8.88943C2.3867 10.818 2.93939 12.7057 3.97628 14.3319C5.01317 15.9581 6.49144 17.2556 8.23837 18.0728L9.99948 18.8894L11.7495 18.0728C13.4989 17.2577 14.9798 15.961 16.0189 14.3346C17.0579 12.7082 17.6119 10.8194 17.6161 8.88943V7.22276H16.2717ZM10.3217 12.7783C10.2037 12.8917 10.0464 12.955 9.88281 12.955C9.71918 12.955 9.5619 12.8917 9.44392 12.7783L7.66615 11.0005L8.56059 10.1061L9.89392 11.4339L12.1161 9.21165L13.0106 10.1061L10.3217 12.7783Z" fill="#ADADAD"/>
</svg>
