<svg width="24" height="24" viewBox="0 0 24 24" fill="none" xmlns="http://www.w3.org/2000/svg">
<g clip-path="url(#clip0_658_2261)">
<path d="M2 12C2 11.4477 2.44771 11 3 11H21C21.5523 11 22 11.4477 22 12V19.5C22 20.3284 21.3284 21 20.5 21C19.6716 21 19 20.3284 19 19.5V18.5H5V19.5C5 20.3284 4.32843 21 3.5 21C2.67157 21 2 20.3284 2 19.5V12Z" fill="#A6A6A6"/>
<path d="M3 6C3 4.34315 4.34315 3 6 3H18C19.6569 3 21 4.34315 21 6V11H3V6Z" fill="black"/>
<path d="M5 8C5 6.89543 5.89543 6 7 6H9C10.1046 6 11 6.89543 11 8V9H5V8Z" fill="#A6A6A6"/>
<path d="M13 8C13 6.89543 13.8954 6 15 6H17C18.1046 6 19 6.89543 19 8V9H13V8Z" fill="#A6A6A6"/>
</g>
<defs>
<clipPath id="clip0_658_2261">
<rect width="20" height="18" fill="white" transform="translate(2 3)"/>
</clipPath>
</defs>
</svg>
