<svg width="44" height="44" viewBox="0 0 44 44" fill="none" xmlns="http://www.w3.org/2000/svg">
<rect width="44" height="44" rx="5" fill="#F2F4F7"/>
<path d="M29.1445 30.5715H29.8588C29.9541 30.5772 30.0495 30.5627 30.1388 30.5288C30.2281 30.4949 30.3091 30.4425 30.3766 30.375C30.4441 30.3075 30.4965 30.2264 30.5304 30.1372C30.5643 30.0479 30.5788 29.9525 30.5731 29.8572V23.4286C30.5788 23.3333 30.5643 23.2379 30.5304 23.1487C30.4965 23.0594 30.4441 22.9783 30.3766 22.9108C30.3091 22.8433 30.2281 22.7909 30.1388 22.757C30.0495 22.7232 29.9541 22.7086 29.8588 22.7144H29.1445L29.1445 30.5715Z" fill="#555555"/>
<path d="M14.8556 29.8572L14.8556 22.7144H14.1413C14.046 22.7086 13.9506 22.7232 13.8613 22.757C13.772 22.7909 13.691 22.8433 13.6235 22.9108C13.556 22.9783 13.5036 23.0594 13.4697 23.1487C13.4358 23.2379 13.4213 23.3333 13.427 23.4286L13.427 29.8572C13.4213 29.9525 13.4358 30.0479 13.4697 30.1372C13.5036 30.2264 13.556 30.3075 13.6235 30.375C13.691 30.4425 13.772 30.4949 13.8613 30.5288C13.9506 30.5627 14.046 30.5772 14.1413 30.5715H14.8556V29.8572Z" fill="#555555"/>
<path d="M26.9994 13.4285L16.9994 13.4285C16.81 13.4285 16.6283 13.5037 16.4944 13.6377C16.3604 13.7716 16.2852 13.9533 16.2852 14.1428L16.2852 29.857C16.2852 30.0465 16.3604 30.2282 16.4944 30.3621C16.6283 30.4961 16.81 30.5713 16.9994 30.5713H20.5709V28.0713C20.5709 27.9766 20.6085 27.8858 20.6755 27.8188C20.7425 27.7518 20.8333 27.7142 20.928 27.7142H23.0709C23.1656 27.7142 23.2564 27.7518 23.3234 27.8188C23.3904 27.8858 23.428 27.9766 23.428 28.0713V30.5713L26.9994 30.5713C27.1889 30.5713 27.3706 30.4961 27.5045 30.3621C27.6385 30.2282 27.7137 30.0465 27.7137 29.857L27.7137 14.1428C27.7137 13.9533 27.6385 13.7716 27.5045 13.6377C27.3706 13.5037 27.1889 13.4285 26.9994 13.4285ZM20.2137 25.5713H18.7852C18.6904 25.5713 18.5996 25.5337 18.5326 25.4667C18.4656 25.3997 18.428 25.3089 18.428 25.2142V24.4999C18.428 24.4052 18.4656 24.3143 18.5326 24.2474C18.5996 24.1804 18.6904 24.1428 18.7852 24.1428H20.2137C20.3084 24.1428 20.3993 24.1804 20.4663 24.2474C20.5332 24.3143 20.5709 24.4052 20.5709 24.4999V25.2142C20.5709 25.3089 20.5332 25.3997 20.4663 25.4667C20.3993 25.5337 20.3084 25.5713 20.2137 25.5713ZM20.2137 22.7142H18.7852C18.6904 22.7142 18.5996 22.6766 18.5326 22.6096C18.4656 22.5426 18.428 22.4518 18.428 22.357V21.6428C18.428 21.548 18.4656 21.4572 18.5326 21.3902C18.5996 21.3232 18.6904 21.2856 18.7852 21.2856H20.2137C20.3084 21.2856 20.3993 21.3232 20.4663 21.3902C20.5332 21.4572 20.5709 21.548 20.5709 21.6428V22.357C20.5709 22.4518 20.5332 22.5426 20.4663 22.6096C20.3993 22.6766 20.3084 22.7142 20.2137 22.7142ZM20.2137 19.857H18.7852C18.6904 19.857 18.5996 19.8194 18.5326 19.7524C18.4656 19.6855 18.428 19.5946 18.428 19.4999V18.7856C18.428 18.6909 18.4656 18.6 18.5326 18.5331C18.5996 18.4661 18.6904 18.4285 18.7852 18.4285H20.2137C20.3084 18.4285 20.3993 18.4661 20.4663 18.5331C20.5332 18.6 20.5709 18.6909 20.5709 18.7856V19.4999C20.5709 19.5946 20.5332 19.6855 20.4663 19.7524C20.3993 19.8194 20.3084 19.857 20.2137 19.857ZM20.2137 16.9999H18.7852C18.6904 16.9999 18.5996 16.9623 18.5326 16.8953C18.4656 16.8283 18.428 16.7375 18.428 16.6428V15.9285C18.428 15.8337 18.4656 15.7429 18.5326 15.6759C18.5996 15.609 18.6904 15.5713 18.7852 15.5713H20.2137C20.3084 15.5713 20.3993 15.609 20.4663 15.6759C20.5332 15.7429 20.5709 15.8337 20.5709 15.9285V16.6428C20.5709 16.7375 20.5332 16.8283 20.4663 16.8953C20.3993 16.9623 20.3084 16.9999 20.2137 16.9999ZM25.2137 25.5713H23.7852C23.6904 25.5713 23.5996 25.5337 23.5326 25.4667C23.4656 25.3997 23.428 25.3089 23.428 25.2142V24.4999C23.428 24.4052 23.4656 24.3143 23.5326 24.2474C23.5996 24.1804 23.6904 24.1428 23.7852 24.1428H25.2137C25.3084 24.1428 25.3993 24.1804 25.4663 24.2474C25.5332 24.3143 25.5709 24.4052 25.5709 24.4999V25.2142C25.5709 25.3089 25.5332 25.3997 25.4663 25.4667C25.3993 25.5337 25.3084 25.5713 25.2137 25.5713ZM25.2137 22.7142H23.7852C23.6904 22.7142 23.5996 22.6766 23.5326 22.6096C23.4656 22.5426 23.428 22.4518 23.428 22.357V21.6428C23.428 21.548 23.4656 21.4572 23.5326 21.3902C23.5996 21.3232 23.6904 21.2856 23.7852 21.2856H25.2137C25.3084 21.2856 25.3993 21.3232 25.4663 21.3902C25.5332 21.4572 25.5709 21.548 25.5709 21.6428V22.357C25.5709 22.4518 25.5332 22.5426 25.4663 22.6096C25.3993 22.6766 25.3084 22.7142 25.2137 22.7142ZM25.2137 19.857H23.7852C23.6904 19.857 23.5996 19.8194 23.5326 19.7524C23.4656 19.6855 23.428 19.5946 23.428 19.4999V18.7856C23.428 18.6909 23.4656 18.6 23.5326 18.5331C23.5996 18.4661 23.6904 18.4285 23.7852 18.4285H25.2137C25.3084 18.4285 25.3993 18.4661 25.4663 18.5331C25.5332 18.6 25.5709 18.6909 25.5709 18.7856V19.4999C25.5709 19.5946 25.5332 19.6855 25.4663 19.7524C25.3993 19.8194 25.3084 19.857 25.2137 19.857ZM25.2137 16.9999L23.7852 16.9999C23.6904 16.9999 23.5996 16.9623 23.5326 16.8953C23.4656 16.8283 23.428 16.7375 23.428 16.6428V15.9285C23.428 15.8337 23.4656 15.7429 23.5326 15.6759C23.5996 15.609 23.6904 15.5713 23.7852 15.5713H25.2137C25.3084 15.5713 25.3993 15.609 25.4663 15.6759C25.5332 15.7429 25.5709 15.8337 25.5709 15.9285V16.6428C25.5709 16.7375 25.5332 16.8283 25.4663 16.8953C25.3993 16.9623 25.3084 16.9999 25.2137 16.9999Z" fill="#555555"/>
</svg>
