<svg width="20" height="20" viewBox="0 0 20 20" fill="none" xmlns="http://www.w3.org/2000/svg">
<path d="M1.7964 7.9125C1.71426 7.93276 1.64 7.97702 1.5831 8.03963C1.5262 8.10224 1.48921 8.18036 1.47687 8.26406C1.31862 9.42942 1.36901 10.6136 1.62569 11.7613L4.6546 10.6203C4.76302 10.5849 4.88105 10.5941 4.98273 10.6457C5.08441 10.6974 5.16141 10.7873 5.19679 10.8957C5.23217 11.0041 5.22303 11.1222 5.17138 11.2238C5.11974 11.3255 5.02981 11.4025 4.9214 11.4379L1.85499 12.593C2.26129 13.8517 2.95422 14.999 3.87921 15.9445L5.8714 13.9203C5.91024 13.8782 5.95711 13.8444 6.00923 13.8206C6.06136 13.7969 6.1177 13.7839 6.17495 13.7823C6.23219 13.7807 6.28918 13.7905 6.34256 13.8112C6.39595 13.8319 6.44466 13.8631 6.48582 13.9029C6.52698 13.9427 6.55977 13.9904 6.58227 14.043C6.60476 14.0957 6.61649 14.1523 6.61679 14.2096C6.61708 14.2668 6.60593 14.3236 6.58398 14.3765C6.56203 14.4294 6.52973 14.4773 6.48898 14.5176L4.50733 16.5312C5.52789 17.3969 6.73488 18.0147 8.0339 18.3363L8.97374 15.2113C9.00683 15.1041 9.08059 15.014 9.17922 14.9604C9.27786 14.9068 9.39356 14.894 9.50155 14.9246C9.60955 14.9552 9.70127 15.0269 9.75711 15.1243C9.81294 15.2217 9.82844 15.337 9.8003 15.4457L8.87843 18.509C10.038 18.6892 11.2199 18.668 12.3722 18.4461C12.4544 18.4294 12.5298 18.3889 12.5891 18.3295C12.6483 18.2702 12.6888 18.1947 12.7054 18.1125L13.3745 14.8949L5.03116 7.09375L1.7964 7.9125Z" fill="#ADADAD"/>
<path d="M18.0469 2.17256L17.7176 1.86436C17.3638 1.53588 16.8957 1.35872 16.4131 1.37069C15.9306 1.38266 15.4718 1.58281 15.1348 1.92842L10.4617 6.75772L9.47656 5.83741C8.54883 4.96983 7.09375 4.99483 6.22266 5.89366L5.64453 6.49092L13.9559 14.2616L14.5312 13.6651C15.4008 12.7667 15.3516 11.3351 14.4258 10.4675L13.4375 9.54248L18.1109 4.71162C18.2761 4.5421 18.4056 4.34126 18.492 4.12091C18.5783 3.90057 18.6198 3.66518 18.6138 3.4286C18.6078 3.19201 18.5546 2.95901 18.4572 2.7433C18.3599 2.5276 18.2203 2.33354 18.0469 2.17256Z" fill="#ADADAD"/>
</svg>
