<svg width="20" height="20" viewBox="0 0 20 20" fill="none" xmlns="http://www.w3.org/2000/svg">
<path fill-rule="evenodd" clip-rule="evenodd" d="M16.1402 5.63719C16.2536 5.53277 16.3697 5.43176 16.4885 5.3341C17.0294 4.88957 17.6222 4.51809 18.267 4.21973C18.7261 4.40023 18.8863 4.89344 18.7276 5.21828C18.2619 5.43375 17.8299 5.6907 17.4317 5.98902C17.0558 5.87535 16.6805 5.76727 16.2978 5.67457C16.2453 5.66184 16.1928 5.64937 16.1402 5.63719ZM16.4741 14.4339C16.1168 14.75 15.8035 15.1775 15.5289 15.78H0.881619C0.814471 15.78 0.756736 15.7492 0.719393 15.6934C0.682088 15.6378 0.675291 15.5727 0.700643 15.5107C0.852596 15.1375 1.00904 14.78 1.16869 14.4339H16.4741ZM16.868 6.37449C16.3833 6.36152 6.92732 2.73094 1.42951 13.887H17.3476C17.8359 13.6745 18.3869 13.5464 19.0086 13.4071C19.2019 13.3639 19.331 13.1858 19.312 12.9886C19.0177 9.91738 18.3486 9.27211 16.868 6.37449ZM14.5281 7.8016C16.0448 8.16621 15.016 11.1371 10.4885 11.1371H7.07904C3.91252 11.1371 9.81185 6.66789 14.5281 7.8016ZM9.9631 9.86125H11.5848C11.9167 9.86125 12.1979 10.0896 12.279 10.397C11.6769 10.538 11.0505 10.5903 10.4886 10.5903H9.24533V10.5791C9.24529 10.1842 9.5683 9.86125 9.9631 9.86125Z" fill="#ADADAD"/>
</svg>
