<svg width="64" height="7" viewBox="0 0 64 7" fill="none" xmlns="http://www.w3.org/2000/svg">
<path d="M0.333333 3.5C0.333333 4.97276 1.52724 6.16667 3 6.16667C4.47276 6.16667 5.66667 4.97276 5.66667 3.5C5.66667 2.02724 4.47276 0.833333 3 0.833333C1.52724 0.833333 0.333333 2.02724 0.333333 3.5ZM63.3652 3.50001L58.3652 0.613253L58.3652 6.38676L63.3652 3.50001ZM3 3.5L3 4L4.50913 4L4.50913 3.5L4.50913 3L3 3L3 3.5ZM7.52739 3.5L7.52739 4L10.5457 4L10.5457 3.5L10.5457 3L7.52739 3L7.52739 3.5ZM13.5639 3.5L13.5639 4L16.5822 4L16.5822 3.5L16.5822 3L13.5639 3L13.5639 3.5ZM19.6004 3.5L19.6004 4L22.6187 4L22.6187 3.5L22.6187 3L19.6004 3L19.6004 3.5ZM25.637 3.5L25.637 4L28.6552 4L28.6552 3.5L28.6552 3L25.637 3L25.637 3.5ZM31.6735 3.5L31.6735 4L34.6917 4L34.6917 3.5L34.6917 3L31.6735 3L31.6735 3.5ZM37.71 3.5L37.71 4L40.7283 4L40.7283 3.5L40.7283 3L37.71 3L37.71 3.5ZM43.7465 3.5L43.7465 4L46.7648 4L46.7648 3.5L46.7648 3L43.7465 3L43.7465 3.5ZM49.7831 3.5L49.7831 4L52.8013 4L52.8013 3.5L52.8013 3L49.7831 3L49.7831 3.5ZM55.8196 3.5L55.8196 4L58.8378 4L58.8378 3.5L58.8378 3L55.8196 3L55.8196 3.5Z" fill="#888888"/>
</svg>
