<svg width="20" height="20" viewBox="0 0 20 20" fill="none" xmlns="http://www.w3.org/2000/svg">
<path d="M16.6595 7.08301H9.15951C8.60717 7.08367 8.07765 7.30337 7.6871 7.69393C7.29654 8.08449 7.07683 8.61401 7.07617 9.16634V14.1663C7.07683 14.7187 7.29654 15.2482 7.6871 15.6387C8.07765 16.0293 8.60717 16.249 9.15951 16.2497H13.362L15.1758 18.0638C15.2632 18.1513 15.3746 18.2109 15.4958 18.235C15.6171 18.2592 15.7428 18.2468 15.8571 18.1995C15.9713 18.1521 16.0689 18.072 16.1376 17.9691C16.2063 17.8663 16.2429 17.7454 16.2428 17.6218V16.2497H16.6595C17.2118 16.249 17.7414 16.0293 18.1319 15.6387C18.5225 15.2482 18.7422 14.7187 18.7428 14.1663V9.16634C18.7422 8.61401 18.5225 8.08449 18.1319 7.69393C17.7414 7.30337 17.2118 7.08367 16.6595 7.08301ZM14.9928 11.0413H14.7599C14.6636 11.9017 14.2717 12.7019 13.6512 13.3055C14.0092 13.4596 14.3947 13.5398 14.7845 13.5413C14.8966 13.5407 15.0045 13.584 15.0851 13.6618C15.1658 13.7397 15.2128 13.846 15.2162 13.958C15.2178 14.012 15.2087 14.0657 15.1893 14.116C15.1698 14.1664 15.1405 14.2123 15.103 14.2512C15.0656 14.29 15.0207 14.3209 14.9711 14.3422C14.9214 14.3634 14.8681 14.3744 14.8141 14.3747C14.148 14.3728 13.4941 14.1961 12.9178 13.8622C12.3468 14.1975 11.6967 14.3744 11.0345 14.3747C10.9224 14.3753 10.8145 14.332 10.7339 14.2542C10.6532 14.1763 10.6062 14.07 10.6028 13.958C10.6012 13.9041 10.6103 13.8503 10.6298 13.8C10.6492 13.7496 10.6785 13.7037 10.716 13.6649C10.7535 13.626 10.7983 13.5951 10.848 13.5739C10.8976 13.5527 10.951 13.5416 11.0049 13.5413C11.4075 13.5418 11.806 13.4605 12.1762 13.3022C11.8531 12.9949 11.5884 12.6317 11.3949 12.2301C11.3694 12.1804 11.3542 12.1262 11.3501 12.0705C11.3459 12.0148 11.353 11.9589 11.371 11.9061C11.3889 11.8532 11.4172 11.8045 11.4543 11.7628C11.4914 11.7211 11.5365 11.6873 11.587 11.6633C11.6374 11.6394 11.6921 11.6259 11.7479 11.6235C11.8036 11.6211 11.8593 11.63 11.9116 11.6495C11.9639 11.6691 12.0117 11.6989 12.0522 11.7373C12.0927 11.7757 12.1251 11.8219 12.1474 11.873C12.3272 12.2505 12.5863 12.5848 12.907 12.853C13.4558 12.3944 13.8158 11.7492 13.9178 11.0413H10.8262C10.7157 11.0413 10.6097 10.9974 10.5315 10.9193C10.4534 10.8412 10.4095 10.7352 10.4095 10.6247C10.4095 10.5142 10.4534 10.4082 10.5315 10.33C10.6097 10.2519 10.7157 10.208 10.8262 10.208H12.4928V9.37467C12.4928 9.26417 12.5367 9.15819 12.6149 9.08005C12.693 9.00191 12.799 8.95801 12.9095 8.95801C13.02 8.95801 13.126 9.00191 13.2041 9.08005C13.2823 9.15819 13.3262 9.26417 13.3262 9.37467V10.208H14.9928C15.1033 10.208 15.2093 10.2519 15.2875 10.33C15.3656 10.4082 15.4095 10.5142 15.4095 10.6247C15.4095 10.7352 15.3656 10.8412 15.2875 10.9193C15.2093 10.9974 15.1033 11.0413 14.9928 11.0413Z" fill="#ADADAD"/>
<path d="M6.2432 6.00684L5.56445 7.49975H6.76987C6.79987 7.45809 6.83195 7.41642 6.86445 7.37475L6.2432 6.00684Z" fill="#ADADAD"/>
<path d="M9.99349 2.5H2.49349C1.94116 2.50066 1.41164 2.72037 1.02108 3.11092C0.630524 3.50148 0.410818 4.031 0.410156 4.58333V9.58333C0.410818 10.1357 0.630524 10.6652 1.02108 11.0557C1.41164 11.4463 1.94116 11.666 2.49349 11.6667H2.91016V13.0388C2.9101 13.1624 2.94673 13.2833 3.0154 13.3861C3.08407 13.489 3.1817 13.5691 3.29594 13.6164C3.41018 13.6638 3.53589 13.6761 3.65717 13.652C3.77844 13.6279 3.88983 13.5683 3.97724 13.4808L5.79099 11.6667H6.24349V9.16667C6.24434 8.88428 6.28645 8.60354 6.36849 8.33333H5.18599L4.53932 9.75583C4.49202 9.85391 4.4082 9.92957 4.30581 9.96662C4.20342 10.0037 4.0906 9.99917 3.99149 9.95408C3.89237 9.90899 3.81485 9.82689 3.77551 9.72536C3.73617 9.62383 3.73814 9.51093 3.78099 9.41083L5.86432 4.8275C5.89747 4.75476 5.95084 4.69308 6.01807 4.64983C6.0853 4.60658 6.16355 4.58359 6.24349 4.58359C6.32343 4.58359 6.40168 4.60658 6.46891 4.64983C6.53614 4.69308 6.58951 4.75476 6.62266 4.8275L7.50474 6.76792C7.99069 6.43024 8.5684 6.2495 9.16016 6.25H12.0768V4.58333C12.0762 4.031 11.8565 3.50148 11.4659 3.11092C11.0753 2.72037 10.5458 2.50066 9.99349 2.5Z" fill="#ADADAD"/>
</svg>
