<svg width="14" height="15" viewBox="0 0 14 15" fill="none" xmlns="http://www.w3.org/2000/svg">
<rect width="14" height="15" fill="#B4B4B4"/>
<path d="M-824 -1301C-824 -1302.1 -823.105 -1303 -822 -1303H1065C1066.1 -1303 1067 -1302.1 1067 -1301V2744C1067 2745.1 1066.1 2746 1065 2746H-822C-823.105 2746 -824 2745.1 -824 2744V-1301Z" fill="#5B5B5B"/>
<path d="M-822 -1303V-1302H1065V-1303V-1304H-822V-1303ZM1067 -1301H1066V2744H1067H1068V-1301H1067ZM1065 2746V2745H-822V2746V2747H1065V2746ZM-824 2744H-823V-1301H-824H-825V2744H-824ZM-822 2746V2745C-822.552 2745 -823 2744.55 -823 2744H-824H-825C-825 2745.66 -823.657 2747 -822 2747V2746ZM1067 2744H1066C1066 2744.55 1065.55 2745 1065 2745V2746V2747C1066.66 2747 1068 2745.66 1068 2744H1067ZM1065 -1303V-1302C1065.55 -1302 1066 -1301.55 1066 -1301H1067H1068C1068 -1302.66 1066.66 -1304 1065 -1304V-1303ZM-822 -1303V-1304C-823.657 -1304 -825 -1302.66 -825 -1301H-824H-823C-823 -1301.55 -822.552 -1302 -822 -1302V-1303Z" fill="black" fill-opacity="0.1"/>
<rect width="650" height="3265" transform="translate(-204 -884)" fill="white"/>
<rect x="-174.5" y="-670" width="591" height="2943" rx="10" fill="white"/>
<rect x="-153.5" y="-200.5" width="549" height="334" rx="7.5" fill="white"/>
<rect x="-153.5" y="-200.5" width="549" height="334" rx="7.5" stroke="#DCDCDC"/>
<path d="M13.6173 9.12738C13.5587 9.06898 13.4848 9.02836 13.4041 9.01024C13.3235 8.99212 13.2393 8.99724 13.1614 9.025C12.1146 9.39822 10.9834 9.46675 9.89922 9.22263C8.81503 8.97851 7.82237 8.43176 7.03656 7.64591C6.25076 6.86006 5.70407 5.86737 5.46001 4.78317C5.21595 3.69897 5.28455 2.56777 5.65783 1.52101C5.68556 1.4431 5.69065 1.35892 5.6725 1.27824C5.65435 1.19756 5.6137 1.12367 5.55527 1.06515C5.49684 1.00663 5.42302 0.965865 5.34236 0.947587C5.26171 0.929309 5.17753 0.934265 5.09958 0.96188C4.15584 1.29514 3.29941 1.83693 2.59401 2.54694C1.32947 3.81244 0.619291 5.52835 0.619629 7.31735C0.619967 9.10636 1.3308 10.822 2.59582 12.087C3.86084 13.352 5.57647 14.0629 7.36548 14.0632C9.15449 14.0635 10.8704 13.3534 12.1359 12.0888C12.846 11.3833 13.3877 10.5267 13.721 9.58282C13.7485 9.50486 13.7533 9.42071 13.735 9.3401C13.7166 9.2595 13.6758 9.18574 13.6173 9.12738Z" fill="#003366"/>
</svg>
