<svg width="20" height="20" viewBox="0 0 20 20" fill="none" xmlns="http://www.w3.org/2000/svg">
<path d="M10 3.55469C7.73863 3.55469 5.89844 5.39488 5.89844 7.65625C5.89844 9.91762 7.73863 11.7578 10 11.7578C12.2614 11.7578 14.1016 9.91762 14.1016 7.65625C14.1016 5.39488 12.2614 3.55469 10 3.55469ZM10.5859 8.24219H9.41406V10C9.41406 10.3239 9.15199 10.5859 8.82812 10.5859C8.50426 10.5859 8.24219 10.3239 8.24219 10V5.3125C8.24219 4.98863 8.50426 4.72656 8.82812 4.72656H10.5859C11.5552 4.72656 12.3438 5.51508 12.3438 6.48438C12.3438 7.45367 11.5552 8.24219 10.5859 8.24219Z" fill="#ADADAD"/>
<path d="M10.5859 5.89844H9.41406V7.07031H10.5859C10.9092 7.07031 11.1719 6.80766 11.1719 6.48438C11.1719 6.16109 10.9092 5.89844 10.5859 5.89844Z" fill="#ADADAD"/>
<path d="M10 0C5.8 0 2.38281 3.45625 2.38281 7.65625C2.38281 9.31395 2.90809 10.8909 3.90203 12.2167L9.53137 19.7654C9.6418 19.913 9.81574 20 10 20C10.1843 20 10.3582 19.913 10.4686 19.7654L16.098 12.2167C17.0919 10.8909 17.6172 9.31395 17.6172 7.65625C17.6172 3.45625 14.2 0 10 0ZM10 12.9297C7.09207 12.9297 4.72656 10.5642 4.72656 7.65625C4.72656 4.74832 7.09207 2.38281 10 2.38281C12.9079 2.38281 15.2734 4.74832 15.2734 7.65625C15.2734 10.5642 12.9079 12.9297 10 12.9297Z" fill="#ADADAD"/>
</svg>
