<svg width="21" height="22" viewBox="0 0 21 22" fill="none" xmlns="http://www.w3.org/2000/svg">
<path d="M14.25 9.92407C15.4926 9.92407 16.5 8.91671 16.5 7.67407C16.5 6.43143 15.4926 5.42407 14.25 5.42407C13.0074 5.42407 12 6.43143 12 7.67407C12 8.91671 13.0074 9.92407 14.25 9.92407Z" fill="#54627B"/>
<path d="M9.43984 9.92403L5.37109 13.9928C5.79995 13.8298 6.26952 13.8074 6.71197 13.9287C7.15442 14.05 7.54685 14.3088 7.83259 14.6678C8.09159 15.0268 8.42669 15.3243 8.81395 15.5389C9.20121 15.7534 9.63108 15.8798 10.0728 15.909L13.2806 12.7013C13.4212 12.5606 13.5002 12.3699 13.5002 12.171C13.5002 11.9722 13.4212 11.7814 13.2806 11.6408L8.56084 6.92403L10.8108 4.67403L9.75034 3.61353L6.97009 6.39378C6.82949 6.53442 6.7505 6.72515 6.7505 6.92403C6.7505 7.1229 6.82949 7.31363 6.97009 7.45428L9.43984 9.92403Z" fill="#54627B"/>
<path d="M15.1343 15.5985C15.0734 15.5218 14.9959 15.4598 14.9078 15.4172C14.8196 15.3747 14.7229 15.3525 14.625 15.3525C14.5271 15.3525 14.4304 15.3747 14.3422 15.4172C14.2541 15.4598 14.1766 15.5218 14.1157 15.5985C13.6981 16.1646 13.1533 16.6248 12.5253 16.9419C11.8973 17.259 11.2035 17.4242 10.5 17.4242C9.79646 17.4242 9.10275 17.259 8.47473 16.9419C7.8467 16.6248 7.30192 16.1646 6.88425 15.5985C6.82336 15.5218 6.74594 15.4598 6.65776 15.4172C6.56958 15.3747 6.47292 15.3525 6.375 15.3525C6.27708 15.3525 6.18042 15.3747 6.09224 15.4172C6.00406 15.4598 5.92664 15.5218 5.86575 15.5985C5.4795 16.0957 4.82625 17.424 1.5 17.424L1.5 18.924L19.5 18.924V17.424C16.1737 17.424 15.5205 16.0957 15.1343 15.5985Z" fill="#54627B"/>
</svg>
