<svg width="20" height="18" viewBox="0 0 20 18" fill="none" xmlns="http://www.w3.org/2000/svg">
<path d="M13.9996 5.30762V2.30762H5.99959V5.30762H4.49959V0.807617H15.4996V5.30762H13.9996ZM15.8073 9.30762C16.0907 9.30762 16.3282 9.21178 16.5198 9.02012C16.7115 8.82845 16.8073 8.59095 16.8073 8.30762C16.8073 8.02428 16.7115 7.78678 16.5198 7.59512C16.3282 7.40345 16.0907 7.30762 15.8073 7.30762C15.524 7.30762 15.2865 7.40345 15.0948 7.59512C14.9032 7.78678 14.8073 8.02428 14.8073 8.30762C14.8073 8.59095 14.9032 8.82845 15.0948 9.02012C15.2865 9.21178 15.524 9.30762 15.8073 9.30762ZM13.9996 15.9999V11.7306H5.99959V15.9999H13.9996ZM15.4996 17.4999H4.49959V13.4999H0.788086V7.80762C0.788086 7.09928 1.03009 6.50553 1.51409 6.02637C1.99809 5.5472 2.58942 5.30762 3.28809 5.30762H16.7111C17.4194 5.30762 18.0132 5.5472 18.4923 6.02637C18.9715 6.50553 19.2111 7.09928 19.2111 7.80762V13.4999H15.4996V17.4999ZM17.7111 11.9999V7.80762C17.7111 7.52428 17.6153 7.28678 17.4236 7.09512C17.2319 6.90345 16.9944 6.80762 16.7111 6.80762H3.28809C3.00475 6.80762 2.76725 6.90345 2.57559 7.09512C2.38392 7.28678 2.28809 7.52428 2.28809 7.80762V11.9999H4.49959V10.2306H15.4996V11.9999H17.7111Z" fill="#003366"/>
</svg>
