<svg width="11" height="9" viewBox="0 0 11 9" fill="none" xmlns="http://www.w3.org/2000/svg">
<path fill-rule="evenodd" clip-rule="evenodd" d="M10.1927 2.32915C10.2882 2.2369 10.3644 2.12656 10.4168 2.00456C10.4692 1.88255 10.4968 1.75133 10.498 1.61855C10.4991 1.48577 10.4738 1.35409 10.4235 1.2312C10.3732 1.1083 10.299 0.996649 10.2051 0.902756C10.1112 0.808864 9.99955 0.73461 9.87666 0.68433C9.75376 0.634049 9.62208 0.608747 9.4893 0.609901C9.35652 0.611055 9.2253 0.638641 9.1033 0.69105C8.98129 0.743459 8.87095 0.819641 8.7787 0.915151L3.8287 5.86515L1.7077 3.74415C1.61486 3.65124 1.50462 3.57753 1.38329 3.52722C1.26196 3.47691 1.1319 3.451 1.00056 3.45095C0.735286 3.45086 0.480843 3.55614 0.293202 3.74365C0.105562 3.93116 9.38308e-05 4.18553 6.25777e-08 4.4508C-9.37056e-05 4.71607 0.105195 4.97051 0.292703 5.15815L3.0507 7.91615C3.15285 8.01835 3.27414 8.09942 3.40763 8.15474C3.54112 8.21005 3.68421 8.23852 3.8287 8.23852C3.9732 8.23852 4.11628 8.21005 4.24977 8.15474C4.38327 8.09942 4.50455 8.01835 4.6067 7.91615L10.1927 2.32915Z" fill="#43A047"/>
</svg>
