<svg width="20" height="20" viewBox="0 0 20 20" fill="none" xmlns="http://www.w3.org/2000/svg">
<path d="M2.7275 13.4848C2.45478 13.3939 2.18205 13.2424 1.96993 13.0303L0.39417 18.5757C0.272958 19.0303 0.515382 19.5151 1.00023 19.6363C1.48508 19.7575 1.93962 19.4848 2.06084 19.0303C2.24265 18 2.81841 17.9697 2.7275 13.4848Z" fill="#ADADAD"/>
<path d="M2.39329 5.90888C2.33268 5.42404 2.63571 4.99979 3.12056 4.90888C3.57511 4.84828 4.02965 5.15131 4.12056 5.60585C4.12056 5.66646 4.30238 6.27252 5.12056 6.81797V5.93919C5.12056 4.96949 4.33268 4.21191 3.39329 4.21191C2.42359 4.21191 1.66602 4.99979 1.66602 5.93919V11.5452C1.66602 12.3937 2.30238 13.0907 3.05996 13.2422C3.12056 14.8786 3.02965 16.9695 2.75692 18.6665C2.69632 19.1513 2.99935 19.5756 3.4842 19.6665C3.90844 19.7574 4.39329 19.4543 4.4842 18.9392C4.78723 16.9089 4.87814 14.6665 4.78723 12.6362C4.99935 12.3634 5.15086 11.9695 5.15086 11.5756V8.81798C2.72662 7.78767 2.42359 6.0301 2.39329 5.90888Z" fill="#ADADAD"/>
<path d="M3.36299 3.69667C4.3002 3.69667 5.05996 2.93691 5.05996 1.9997C5.05996 1.06249 4.3002 0.302734 3.36299 0.302734C2.42577 0.302734 1.66602 1.06249 1.66602 1.9997C1.66602 2.93691 2.42577 3.69667 3.36299 3.69667Z" fill="#ADADAD"/>
<path d="M8.36352 10.7874V9.51465C8.30291 9.51465 8.1514 9.54495 8.12109 9.51465V17.1207C8.1817 17.151 8.57564 17.5146 9.12109 17.3025C9.60594 17.0904 10.0302 17.3934 10.212 17.454L10.0908 17.6965C9.75746 17.6359 9.42412 17.9086 9.42412 18.2722C9.42412 18.6056 9.69685 18.848 9.99988 18.848C10.3332 18.848 10.5756 18.5753 10.5756 18.2722C10.5756 18.1207 10.515 17.9692 10.3938 17.848L10.5453 17.545C11.1211 17.6056 11.3029 17.151 11.9696 17.3631C12.2726 17.454 12.5756 17.6662 13.0605 17.5146C13.6362 17.3631 13.9393 17.1207 14.4241 17.2722C14.909 17.3934 15.1817 17.6056 15.6362 17.4843L16.0605 17.3631L16.3029 17.848C16.1817 17.9389 16.1211 18.0904 16.1211 18.2722C16.1211 18.6056 16.3938 18.848 16.6969 18.848C16.9999 18.848 17.2726 18.5753 17.2726 18.2722C17.2726 17.9086 16.9393 17.6359 16.6059 17.6965L16.3938 17.2419C16.4241 17.2419 16.6665 17.1207 16.9999 17.2419C17.3938 17.3328 17.7575 17.6056 18.2423 17.3934L18.8181 17.151V10.9086C18.7878 10.6965 9.03018 10.6359 8.36352 10.7874ZM9.99988 18.6359C9.78776 18.6359 9.63625 18.4843 9.63625 18.2722C9.63625 17.7571 10.3635 17.7874 10.3635 18.2722C10.3938 18.4843 10.212 18.6359 9.99988 18.6359ZM17.0605 18.2722C17.0605 18.4843 16.909 18.6359 16.6969 18.6359C16.4847 18.6359 16.3332 18.4843 16.3332 18.2722C16.3029 17.7874 17.0605 17.7874 17.0605 18.2722Z" fill="#ADADAD"/>
<path d="M8.78776 8.69671C8.81806 8.36338 8.57564 8.09065 8.27261 8.06035C6.63624 7.93914 4.12109 7.27247 3.84836 5.69671C3.78776 5.39368 3.51503 5.18156 3.1817 5.21186C2.87867 5.27247 2.63624 5.5452 2.69685 5.87853C3.03018 7.99974 5.78776 9.03005 8.12109 9.24217C8.54533 9.24217 8.75746 8.99974 8.78776 8.69671Z" fill="#ADADAD"/>
<path d="M18.2116 10.3941C18.2116 10.3335 17.9085 10.2728 17.4237 10.2425C17.6964 9.03042 17.0904 7.63648 16.06 7.54557V7.27285C16.1207 7.24254 16.1813 7.15163 16.1813 7.09103C16.1813 6.96981 16.0904 6.87891 15.9691 6.87891C15.8479 6.87891 15.757 6.96981 15.757 7.09103C15.757 7.18194 15.8176 7.24254 15.8782 7.27285V7.54557C14.8479 7.63648 14.2722 9.06072 14.5146 10.2425C14.0297 10.2728 13.7267 10.3335 13.7267 10.3941C13.6964 10.6668 18.2116 10.6365 18.2116 10.3941Z" fill="#ADADAD"/>
<path d="M9.90962 9.42392V10.5148H9.6975V10.636H10.3036V10.5148H10.0914V9.42392C10.3339 9.36331 10.546 9.15119 10.546 8.87846V7.33301H9.45508V8.87846C9.45508 9.15119 9.6369 9.36331 9.90962 9.42392Z" fill="#ADADAD"/>
<path d="M11.2729 9.42392V10.5148H11.0608V10.636H11.6668V10.5148H11.4547V9.42392C11.6971 9.36331 11.9093 9.15119 11.9093 8.87846V7.33301H10.8184V8.87846C10.8184 9.15119 11.0002 9.36331 11.2729 9.42392Z" fill="#ADADAD"/>
<path d="M12.4251 10.6362H13.1523C13.3039 10.6362 13.4251 10.5149 13.4251 10.3634V7.75737C13.4251 7.63616 13.3645 7.54525 13.3039 7.45434L13.0311 7.18161V6.33313C13.0311 6.27252 12.9705 6.21191 12.9099 6.21191H12.6675C12.6069 6.21191 12.5463 6.27252 12.5463 6.33313V7.18161L12.2736 7.45434C12.1826 7.54525 12.1523 7.63616 12.1523 7.75737V10.3634C12.1523 10.5149 12.2736 10.6362 12.4251 10.6362ZM12.3039 8.39373H13.3039V9.54525H12.3039V8.39373Z" fill="#ADADAD"/>
</svg>
