<svg width="20" height="20" viewBox="0 0 20 20" fill="none" xmlns="http://www.w3.org/2000/svg">
<g clip-path="url(#clip0_240_5225)">
<path d="M0 13.9111H15.3972V19.9273H0V13.9111Z" fill="#ADADAD"/>
<path d="M16.5957 13.9111H20.0001V19.9273H16.5957V13.9111Z" fill="#ADADAD"/>
<path d="M16.595 12.3176V11.2722C16.595 9.75929 15.8674 8.32097 14.6486 7.42458C13.7356 6.75318 13.1906 5.67578 13.1906 4.5425V3.49707H11.9922V4.54246C11.9922 6.05537 12.7198 7.49369 13.9386 8.39C14.8516 9.06144 15.3966 10.1389 15.3966 11.2721V12.3175L16.595 12.3176Z" fill="#ADADAD"/>
<path d="M18.0548 4.00075C17.1419 3.32931 16.5969 2.25192 16.5969 1.11868V0.0732422H15.3984V1.11864C15.3984 2.6315 16.126 4.06982 17.3449 4.96621C18.2578 5.63761 18.8028 6.71501 18.8028 7.84829V8.89368H20.0013V7.84829C20.0013 6.33542 19.2737 4.8971 18.0548 4.00075Z" fill="#ADADAD"/>
</g>
<defs>
<clipPath id="clip0_240_5225">
<rect width="20" height="20" fill="white"/>
</clipPath>
</defs>
</svg>
