<svg width="20" height="20" viewBox="0 0 20 20" fill="none" xmlns="http://www.w3.org/2000/svg">
<g clip-path="url(#clip0_240_5211)">
<path d="M14.1352 12.5668L13.1743 11.0181C14.1827 12.2711 16.0487 12.3333 17.1381 11.1749C18.1328 10.1172 18.082 8.45618 17.0242 7.46134C15.9669 6.46696 14.3055 6.51739 13.3106 7.57528C12.5463 8.38802 12.4077 9.5436 12.838 10.476L10.5136 6.72977L13.9629 5.73442C15.0341 5.42532 15.5404 4.19915 14.9961 3.22388C14.6009 2.51575 13.7807 2.17817 13.0016 2.40302L7.77961 3.90989C6.42566 4.30063 5.81934 5.87454 6.56277 7.07282L8.14113 9.61669L5.37305 11.3342C8.70324 11.4108 11.1094 12.4247 14.1352 12.5668Z" fill="#ADADAD"/>
<path d="M0.746303 14.2926C8.3165 12.1406 11.1755 16.485 19.5619 14.2959C19.8751 14.2142 20.0626 13.8941 19.9809 13.581C19.8992 13.2679 19.579 13.0803 19.266 13.162C11.2088 15.2653 8.3458 10.914 0.425874 13.1653C0.114624 13.2538 -0.0660013 13.5779 0.0224752 13.8892C0.110991 14.2005 0.435171 14.381 0.746303 14.2926Z" fill="#ADADAD"/>
<path d="M19.266 15.8958C11.194 18.0029 8.3615 13.6433 0.425874 15.8992C0.114624 15.9876 -0.0660013 16.3117 0.0224752 16.623C0.110952 16.9343 0.435131 17.1149 0.746303 17.0264C8.3165 14.8744 11.1755 19.2188 19.5619 17.0297C19.8751 16.948 20.0626 16.6279 19.9809 16.3148C19.8992 16.0017 19.579 15.8141 19.266 15.8958Z" fill="#ADADAD"/>
</g>
<defs>
<clipPath id="clip0_240_5211">
<rect width="20" height="20" fill="white"/>
</clipPath>
</defs>
</svg>
