<svg width="15" height="15" viewBox="0 0 15 15" fill="none" xmlns="http://www.w3.org/2000/svg">
<g clip-path="url(#clip0_244_4773)">
<path fill-rule="evenodd" clip-rule="evenodd" d="M0.782227 7.50024C0.782227 3.78958 3.79031 0.781494 7.50098 0.781494C11.2117 0.781494 14.2197 3.78958 14.2197 7.50024C14.2197 11.2109 11.2117 14.219 7.50098 14.219C3.79031 14.219 0.782227 11.2109 0.782227 7.50024ZM7.96973 5.00024C7.96973 4.74136 7.75985 4.53149 7.50098 4.53149C7.2421 4.53149 7.03223 4.74136 7.03223 5.00024V7.33299C7.03223 7.59418 7.16279 7.83812 7.3801 7.98306L9.11598 9.14024C9.33135 9.28387 9.62241 9.22568 9.76598 9.01024C9.9096 8.79487 9.85141 8.50381 9.63598 8.36024L7.96973 7.24937V5.00024Z" fill="#4E4E4E"/>
</g>
<defs>
<clipPath id="clip0_244_4773">
<rect width="15" height="15" fill="white"/>
</clipPath>
</defs>
</svg>
