<svg width="15" height="14" viewBox="0 0 15 14" fill="none" xmlns="http://www.w3.org/2000/svg">
<path d="M14.4826 13.72C14.4334 13.8052 14.3627 13.8759 14.2776 13.925C14.1924 13.9742 14.0958 14 13.9975 14L0.55935 14C0.461111 13.9999 0.364628 13.974 0.279589 13.9248C0.19455 13.8756 0.123948 13.8049 0.0748721 13.7198C0.0257964 13.6347 -2.51784e-05 13.5382 4.22719e-08 13.4399C2.52629e-05 13.3417 0.0258964 13.2452 0.0750157 13.1601C1.14097 11.3173 2.78365 9.99584 4.70069 9.36943C3.75243 8.80493 3.0157 7.94476 2.60362 6.92102C2.19155 5.89728 2.12692 4.76658 2.41966 3.70255C2.71239 2.63852 3.34632 1.70001 4.22407 1.03113C5.10182 0.362254 6.17487 7.84025e-09 7.27844 9.24144e-09C8.382 1.06426e-08 9.45505 0.362254 10.3328 1.03113C11.2106 1.70001 11.8445 2.63852 12.1372 3.70255C12.43 4.76658 12.3653 5.89728 11.9532 6.92102C11.5412 7.94476 10.8044 8.80493 9.85619 9.36943C11.7732 9.99584 13.4159 11.3173 14.4819 13.1601C14.5311 13.2452 14.5571 13.3417 14.5572 13.44C14.5573 13.5383 14.5316 13.6349 14.4826 13.72Z" fill="#ADADAD"/>
</svg>
