<svg width="168" height="40" viewBox="0 0 168 40" fill="none" xmlns="http://www.w3.org/2000/svg">
<mask id="mask0_243_39128" style="mask-type:luminance" maskUnits="userSpaceOnUse" x="0" y="0" width="168" height="40">
<path d="M168 0.336426H0V39.6637H168V0.336426Z" fill="white"/>
</mask>
<g mask="url(#mask0_243_39128)">
<path d="M45.8164 9.74854H51.2764L55.1862 23.9484H55.2893L59.1457 9.74854H64.4644L58.046 28.4576H52.2768L45.8164 9.74854Z" fill="#0560FB"/>
<path d="M69.1793 27.6559C67.8122 26.877 66.7089 25.7086 66.0063 24.2997C65.235 22.6885 64.857 20.9206 64.9067 19.1337C64.8608 17.343 65.2465 15.5713 66.0254 13.9601C66.7202 12.555 67.8082 11.379 69.1561 10.5772C70.6033 9.75246 72.245 9.34007 73.9098 9.38207C75.5633 9.33246 77.1977 9.72951 78.6442 10.5275C79.9697 11.295 81.0425 12.429 81.7337 13.7959C82.4857 15.3308 82.8601 17.0222 82.8217 18.7328V20.3212H67.4001V17.0948H80.3817L77.957 20.1112V18.141C77.9841 17.1979 77.8121 16.2624 77.4497 15.3919C77.1593 14.7084 76.6705 14.1319 76.0481 13.7272C75.4178 13.3492 74.6929 13.1544 73.9594 13.1697C72.4282 13.1239 71.0273 14.0212 70.4281 15.4301C70.061 16.2853 69.8857 17.2093 69.9161 18.141V20.1302C69.8897 21.0352 70.0649 21.9362 70.4281 22.7648C70.7409 23.4597 71.2522 24.0439 71.9017 24.4448C72.5962 24.8495 73.3905 25.0519 74.1922 25.029C74.8146 25.0442 75.4297 24.9335 76.0065 24.7006C76.4761 24.5059 76.9033 24.2233 77.2625 23.8606C77.5562 23.5704 77.7857 23.2192 77.9265 22.8335L77.9609 22.7266H82.6345L82.5809 22.9213C82.4242 23.6544 82.1497 24.3532 81.7641 24.9946C81.3289 25.7201 80.7713 26.3653 80.1145 26.9037C79.3625 27.5184 78.5073 27.9919 77.5866 28.2973C76.4602 28.6677 75.2769 28.8471 74.0897 28.8242C72.3786 28.8739 70.6834 28.4692 69.1793 27.6559Z" fill="#0560FB"/>
<path d="M85.4219 9.7483H90.5148V13.0129H90.618C90.8356 11.9857 91.37 11.0503 92.1452 10.3401C92.9091 9.69102 93.8867 9.34741 94.8868 9.38174C95.154 9.38174 95.4212 9.39702 95.6884 9.43518C95.9139 9.46197 96.1315 9.50774 96.3491 9.57269V14.0743C96.0932 13.9674 95.822 13.8949 95.5475 13.8567C95.2003 13.8032 94.8524 13.7765 94.5011 13.7765C93.7564 13.7574 93.0196 13.9254 92.3555 14.2652C91.7635 14.5897 91.29 15.09 90.9963 15.697C90.6643 16.4149 90.5035 17.1976 90.5267 17.988V28.4536H85.4219V9.7483Z" fill="#0560FB"/>
<path d="M98.418 9.74794H103.511V12.8024H103.614C104.076 11.7677 104.828 10.8895 105.779 10.2748C106.844 9.62954 108.074 9.30882 109.319 9.35082C111.38 9.35082 112.972 9.96938 114.092 11.2103C115.21 12.4512 115.772 14.1694 115.775 16.3648V28.4341H110.682V17.4415C110.682 16.2197 110.392 15.2728 109.819 14.597C109.246 13.9212 108.383 13.5852 107.245 13.5852C106.551 13.5699 105.867 13.7531 105.272 14.1121C104.71 14.4634 104.26 14.9635 103.973 15.5591C103.652 16.2274 103.496 16.9643 103.511 17.705V28.4494H98.418V9.74794Z" fill="#0560FB"/>
<path d="M122.662 27.6741C121.28 26.9028 120.161 25.7345 119.447 24.3256C118.646 22.7028 118.252 20.9083 118.302 19.0985V19.0641C118.248 17.2657 118.642 15.4826 119.447 13.8752C120.18 12.4701 121.303 11.3093 122.685 10.5343C124.178 9.72862 125.854 9.3239 127.55 9.3659C129.252 9.32006 130.94 9.71334 132.444 10.5113C133.826 11.2788 134.953 12.4357 135.678 13.8408C136.484 15.4559 136.877 17.2466 136.823 19.0488V19.0832C136.874 20.8968 136.48 22.6913 135.678 24.3179C134.972 25.7268 133.861 26.8952 132.49 27.6741C129.401 29.2205 125.759 29.2205 122.67 27.6741H122.662ZM129.745 24.1652C130.39 23.665 130.879 22.9853 131.15 22.2141C131.505 21.2137 131.673 20.1599 131.646 19.0985V19.0641C131.673 18.0141 131.501 16.9717 131.142 15.9866C130.863 15.2116 130.371 14.5357 129.718 14.0317C129.092 13.5812 128.336 13.3445 127.565 13.3597C126.797 13.3445 126.049 13.5812 125.43 14.0394C124.781 14.5434 124.289 15.223 124.006 15.9943C123.647 16.9717 123.479 18.0065 123.502 19.0488V19.0832C123.475 20.1446 123.643 21.1985 123.998 22.1989C124.27 22.9739 124.766 23.6536 125.419 24.1499C126.053 24.6043 126.82 24.841 127.599 24.8219C128.366 24.8448 129.122 24.6157 129.745 24.1652Z" fill="#0560FB"/>
<path d="M142.75 28.0826C141.635 27.655 140.654 26.9371 139.918 25.9978C139.234 25.0968 138.814 24.0239 138.695 22.9014V22.7448H143.659L143.694 22.9014C143.831 23.5886 144.224 24.2033 144.793 24.6118C145.503 25.0548 146.332 25.2686 147.168 25.2228C147.73 25.2342 148.29 25.1541 148.825 24.9861C149.23 24.8601 149.593 24.6271 149.879 24.3141C150.135 24.0277 150.268 23.6535 150.261 23.2678V23.245C150.276 22.783 150.078 22.3401 149.722 22.0422C149.15 21.649 148.497 21.3893 147.814 21.2786L144.64 20.599C142.827 20.2248 141.46 19.5871 140.54 18.6899C139.623 17.785 139.123 16.5402 139.162 15.2535V15.2268C139.134 14.1118 139.474 13.0237 140.131 12.1226C140.838 11.2024 141.784 10.4999 142.869 10.0875C144.186 9.58351 145.591 9.33912 147 9.36584C148.439 9.32768 149.871 9.59879 151.2 10.1601C152.269 10.6144 153.193 11.3513 153.873 12.2944C154.487 13.1688 154.831 14.2111 154.858 15.2802V15.4521H150.154V15.3146C150.074 14.6579 149.738 14.0584 149.218 13.6498C148.581 13.1688 147.794 12.9321 146.996 12.9778C146.477 12.9664 145.958 13.0504 145.469 13.2222C145.083 13.3558 144.74 13.5888 144.476 13.9018C144.239 14.1997 144.118 14.5701 144.129 14.9481C144.121 15.4138 144.327 15.8568 144.686 16.1546C145.27 16.5631 145.946 16.8266 146.656 16.9182L149.833 17.5978C151.796 18.0064 153.205 18.6173 154.064 19.4306C154.934 20.2935 155.4 21.4848 155.343 22.7104V22.7295C155.366 23.8826 154.995 25.0051 154.297 25.9215C153.537 26.8722 152.544 27.6015 151.41 28.0406C150.058 28.5714 148.615 28.831 147.164 28.8042C145.66 28.8538 144.159 28.6095 142.75 28.0826Z" fill="#0560FB"/>
<path d="M160.671 27.5258C159.671 26.6514 159.17 25.2158 159.17 23.215V13.5856H156.574V9.74831H159.17V5.1665H164.317V9.74831H167.754V13.5856H164.317V22.6576C164.317 23.532 164.513 24.1429 164.901 24.4827C165.398 24.8569 166.017 25.0401 166.639 24.9943C166.841 24.9943 167.048 24.9867 167.25 24.9676C167.421 24.9676 167.586 24.9332 167.738 24.9103V28.6407C167.456 28.6865 167.113 28.7323 166.7 28.7705C166.226 28.8163 165.753 28.8393 165.276 28.8354C163.206 28.8354 161.672 28.4002 160.671 27.5258Z" fill="#0560FB"/>
<path d="M77.8242 35.6468H74.9794C74.9794 35.9561 75.0978 36.2577 75.3075 36.4868C75.5178 36.6701 75.793 36.7656 76.0714 36.7503C76.2851 36.7579 76.4987 36.7083 76.6898 36.609C76.8539 36.5059 76.9875 36.3532 77.0715 36.1776H77.1555L77.893 36.651C77.7554 36.9641 77.5259 37.2276 77.2395 37.4146C76.8883 37.6246 76.4835 37.7239 76.0754 37.7048C75.6666 37.7163 75.2579 37.6247 74.8914 37.4414C74.5634 37.2734 74.2962 37.0061 74.1282 36.6777C73.937 36.2883 73.8451 35.8568 73.857 35.4216C73.8418 34.9787 73.941 34.5434 74.1434 34.1501C74.3187 33.8256 74.5826 33.5621 74.9067 33.3864C75.2466 33.2147 75.621 33.1268 75.9987 33.1344C76.5258 33.0963 77.045 33.2757 77.4346 33.6308C77.7931 34.028 77.973 34.5548 77.9346 35.0894C77.9346 35.2688 77.9307 35.4521 77.9115 35.6316L77.8242 35.6468ZM76.8691 34.929C76.881 34.6656 76.797 34.4021 76.633 34.1959C76.465 34.0317 76.2315 33.9477 75.9947 33.963C75.4338 33.963 75.1018 34.2876 75.0059 34.929H76.8691Z" fill="#0560FB"/>
<path d="M78.8945 37.61V33.1733H79.9594V33.7652H80.0434C80.4945 33.0893 81.3914 32.8755 82.1017 33.2726C82.3081 33.41 82.4642 33.6124 82.5442 33.8492H82.6282C82.7466 33.6086 82.9305 33.4062 83.1554 33.2612C83.4034 33.1275 83.6825 33.0626 83.961 33.074C84.8777 33.074 85.3354 33.5819 85.3354 34.6013V37.5757H84.2242V34.7388C84.2434 34.5402 84.1905 34.3417 84.0721 34.1775C83.9418 34.0515 83.7626 33.9904 83.5833 34.0057C82.9761 34.0057 82.6706 34.4142 82.6706 35.2275V37.5757H81.5594V34.7388C81.5746 34.5402 81.521 34.3417 81.4066 34.1775C81.273 34.0515 81.0937 33.9904 80.9145 34.0057C80.6585 33.9942 80.4138 34.0973 80.2458 34.292C80.0626 34.5593 79.9786 34.88 80.0057 35.2046V37.5757L78.8945 37.61Z" fill="#0560FB"/>
<path d="M86.543 39.4001V33.1727H87.6541V33.7492H87.7381C87.8598 33.5316 88.0398 33.3559 88.2607 33.2414C88.4975 33.1268 88.7614 33.0658 89.0246 33.0734C89.3527 33.0658 89.6774 33.1536 89.9565 33.3254C90.235 33.5125 90.4526 33.7759 90.5789 34.0891C90.735 34.4938 90.8118 34.9291 90.7999 35.3643C90.8118 35.7996 90.7311 36.2348 90.5631 36.6358C90.4295 36.9488 90.2006 37.2161 89.9142 37.3994C89.6239 37.5712 89.2918 37.6591 88.9518 37.6552C88.7078 37.6591 88.4631 37.6132 88.2382 37.5139C88.0318 37.4185 87.8565 37.2696 87.7302 37.0825L87.6462 37.1016V39.3619L86.543 39.4001ZM89.4023 36.4258C89.7502 35.7843 89.7502 35.0131 89.4023 34.3716C89.2191 34.1425 88.9327 34.0203 88.639 34.0432C88.3526 34.0318 88.0814 34.1578 87.9022 34.3792C87.5391 35.0092 87.5391 35.7843 87.9022 36.4143C88.0814 36.6358 88.3526 36.7618 88.639 36.7503C88.9327 36.7732 89.2158 36.6511 89.4023 36.4258Z" fill="#0560FB"/>
<path d="M92.6295 37.4261C92.3008 37.2467 92.0376 36.9756 91.8656 36.6434C91.5031 35.853 91.5031 34.9443 91.8656 34.1539C92.0336 33.8217 92.3008 33.5469 92.6295 33.3674C93.3511 33.0123 94.1984 33.0123 94.92 33.3674C95.2487 33.5469 95.516 33.8217 95.684 34.1539C96.0504 34.9443 96.0504 35.853 95.684 36.6434C95.512 36.9756 95.2487 37.2467 94.92 37.4261C94.1984 37.785 93.3511 37.785 92.6295 37.4261ZM94.7977 35.3986C94.8287 35.0359 94.7328 34.6732 94.5344 34.3716C94.3472 34.1463 94.0608 34.0279 93.7711 34.0432C93.0839 34.0432 92.74 34.4976 92.74 35.3986C92.74 36.2997 93.0839 36.7503 93.7711 36.7503C94.4583 36.7503 94.7977 36.2997 94.7977 35.3986Z" fill="#0560FB"/>
<path d="M98.676 37.6091H97.5304L96.4648 33.1724H97.496L98.1448 36.162H98.2288L99.0688 33.1724H100.035L100.906 36.162H100.99L101.616 33.1724H102.616L101.562 37.6091H100.417L99.5808 34.5966H99.4968L98.676 37.6091Z" fill="#0560FB"/>
<path d="M107.107 35.6468H104.266C104.266 35.96 104.384 36.2577 104.595 36.4868C104.804 36.6701 105.079 36.7656 105.358 36.7503C105.572 36.7579 105.786 36.7083 105.977 36.609C106.141 36.5059 106.275 36.3532 106.359 36.1776H106.443L107.179 36.651C107.038 36.9641 106.813 37.2276 106.527 37.4146C106.175 37.6246 105.767 37.7239 105.358 37.7048C104.95 37.7163 104.541 37.6247 104.175 37.4414C103.846 37.2734 103.579 37.0061 103.411 36.6777C103.04 35.8759 103.04 34.9519 103.411 34.1501C103.587 33.8256 103.85 33.5621 104.175 33.3864C104.511 33.2147 104.885 33.1307 105.263 33.1344C105.79 33.0963 106.309 33.2757 106.702 33.6308C107.057 34.028 107.237 34.5548 107.199 35.0894C107.199 35.2688 107.195 35.4521 107.175 35.6316L107.107 35.6468ZM106.145 34.929C106.16 34.6656 106.076 34.4059 105.912 34.1959C105.74 34.0317 105.507 33.9439 105.271 33.963C104.709 33.963 104.381 34.2876 104.282 34.929H106.145Z" fill="#0560FB"/>
<path d="M108.18 37.6097V33.1729H109.26V33.8297H109.344C109.428 33.612 109.573 33.4249 109.764 33.2875C109.955 33.1692 110.173 33.108 110.398 33.1157C110.596 33.1004 110.795 33.1462 110.97 33.2455L110.784 34.2039H110.7C110.631 34.1772 110.562 34.1542 110.489 34.1389C110.409 34.1313 110.325 34.1313 110.245 34.1389C109.97 34.1237 109.703 34.2459 109.535 34.4635C109.348 34.7804 109.264 35.1469 109.29 35.5135V37.5829L108.18 37.6097Z" fill="#0560FB"/>
<path d="M111.714 32.4738C111.465 32.2104 111.465 31.8018 111.714 31.5384C111.847 31.4161 112.023 31.3474 112.203 31.3551C112.328 31.3551 112.451 31.3818 112.561 31.4391C112.66 31.4925 112.744 31.5727 112.802 31.6681C112.92 31.8781 112.92 32.1301 112.802 32.3401C112.744 32.4394 112.66 32.5196 112.561 32.5731C112.451 32.6304 112.328 32.6571 112.203 32.6571C112.023 32.6647 111.847 32.596 111.714 32.4738ZM111.648 37.6092V33.1725H112.76V37.594L111.648 37.6092Z" fill="#0560FB"/>
<path d="M114.031 37.6102V33.1734H115.096V33.8226L115.18 33.8417C115.666 33.0818 116.674 32.8604 117.433 33.3453C117.51 33.3911 117.578 33.4484 117.643 33.5057C117.906 33.8531 118.033 34.2846 118.002 34.7198V37.5949H116.891V34.8573C116.914 34.632 116.849 34.4029 116.715 34.2197C116.562 34.0784 116.356 34.0058 116.15 34.0249C115.868 34.0097 115.597 34.1242 115.41 34.3342C115.207 34.6167 115.112 34.9604 115.142 35.304V37.5949L114.031 37.6102Z" fill="#0560FB"/>
<path d="M119.246 39.1631C118.918 38.9874 118.719 38.6399 118.723 38.2696C118.715 38.0558 118.795 37.8496 118.945 37.6969C119.124 37.5327 119.346 37.4296 119.586 37.3991V37.3151C119.456 37.2425 119.346 37.1394 119.262 37.0134C119.197 36.8951 119.162 36.7652 119.166 36.6316C119.166 36.2765 119.395 36.0398 119.857 35.9138V35.8298C119.639 35.7114 119.452 35.5358 119.322 35.3258C119.197 35.1043 119.131 34.8485 119.139 34.5927C119.139 34.3254 119.204 34.0619 119.342 33.8291C119.483 33.5999 119.693 33.4167 119.937 33.3059C120.231 33.1762 120.552 33.1151 120.873 33.1227C121.178 33.1074 121.483 33.1723 121.754 33.3136C121.892 33.1112 121.976 32.8707 121.991 32.6263L122.075 32.5767L122.874 32.7714C122.854 32.9623 122.793 33.1418 122.686 33.3022C122.564 33.4625 122.407 33.5962 122.228 33.6839V33.7718C122.488 34.0047 122.629 34.3407 122.61 34.6882C122.614 34.9478 122.545 35.1998 122.407 35.4212C122.254 35.6427 122.045 35.8145 121.797 35.9214C121.506 36.0512 121.19 36.1162 120.869 36.1085H120.475C120.388 36.1047 120.304 36.1314 120.239 36.1887C120.182 36.2422 120.151 36.3185 120.151 36.3987C120.151 36.4865 120.189 36.5705 120.262 36.6202C120.361 36.6774 120.475 36.7079 120.59 36.7042L121.583 36.7423C122.56 36.7691 123.049 37.1929 123.049 38.0023C123.053 38.2734 122.977 38.5369 122.831 38.7659C122.656 39.0142 122.411 39.1974 122.125 39.2967C121.72 39.4418 121.289 39.5105 120.858 39.4952C120.3 39.5296 119.746 39.4151 119.246 39.1631ZM121.69 38.5178C121.846 38.4376 121.942 38.2772 121.946 38.1016C121.957 37.9832 121.907 37.8687 121.816 37.7923C121.686 37.7159 121.541 37.6816 121.392 37.6892L120.522 37.6472H120.365C120.212 37.6358 120.063 37.6778 119.937 37.7656C119.838 37.8458 119.781 37.9718 119.788 38.1016C119.788 38.2849 119.895 38.4529 120.059 38.5331C120.311 38.6476 120.586 38.7011 120.861 38.6858C121.147 38.7049 121.434 38.6438 121.69 38.5178ZM121.373 35.1425C121.502 34.9936 121.567 34.7989 121.552 34.6042C121.567 34.4094 121.502 34.2147 121.373 34.0696C121.086 33.8214 120.658 33.8214 120.373 34.0696C120.139 34.3903 120.139 34.8218 120.373 35.1425C120.658 35.3907 121.086 35.3907 121.373 35.1425Z" fill="#0560FB"/>
<path d="M125.803 32.4738C125.555 32.2104 125.555 31.8018 125.803 31.5384C125.937 31.4161 126.112 31.3474 126.292 31.3551C126.418 31.3551 126.54 31.3818 126.65 31.4391C126.75 31.4925 126.834 31.5727 126.891 31.6681C127.01 31.8781 127.01 32.1301 126.891 32.3401C126.834 32.4394 126.75 32.5196 126.65 32.5731C126.54 32.6304 126.418 32.6571 126.292 32.6571C126.112 32.6647 125.937 32.596 125.803 32.4738ZM125.738 37.6092V33.1725H126.849V37.594L125.738 37.6092Z" fill="#0560FB"/>
<path d="M128.121 37.6102V33.1734H129.187V33.8226L129.271 33.8417C129.755 33.0818 130.763 32.8604 131.523 33.3453C131.599 33.3911 131.668 33.4484 131.733 33.5057C131.997 33.8531 132.123 34.2846 132.092 34.7198V37.5949H130.981V34.8573C131.004 34.632 130.939 34.4029 130.806 34.2197C130.653 34.0784 130.447 34.0058 130.24 34.0249C129.958 34.0097 129.687 34.1242 129.499 34.3342C129.297 34.6167 129.202 34.9604 129.232 35.304V37.5949L128.121 37.6102Z" fill="#0560FB"/>
<path d="M133.301 37.6092V33.1725H134.366V33.8216L134.45 33.8407C134.706 33.3443 135.233 33.0427 135.79 33.0771C136.206 33.0389 136.618 33.1916 136.913 33.4932C137.176 33.8407 137.302 34.2722 137.271 34.7074V37.5825H136.164V34.8449C136.183 34.6158 136.122 34.3905 135.985 34.2072C135.832 34.0622 135.626 33.9934 135.419 34.0125C135.137 33.9973 134.866 34.1118 134.679 34.3218C134.477 34.6043 134.381 34.9479 134.411 35.2916V37.5825L133.301 37.6092Z" fill="#0560FB"/>
<path d="M139.27 37.4261C138.942 37.2467 138.678 36.9756 138.507 36.6434C138.144 35.853 138.144 34.9443 138.507 34.1539C138.675 33.8217 138.942 33.5469 139.27 33.3674C139.992 33.0123 140.84 33.0123 141.561 33.3674C141.889 33.5469 142.156 33.8217 142.324 34.1539C142.688 34.9443 142.688 35.853 142.324 36.6434C142.153 36.9756 141.889 37.2467 141.561 37.4261C140.84 37.785 139.992 37.785 139.27 37.4261ZM141.439 35.3986C141.469 35.0359 141.374 34.6732 141.176 34.3716C140.988 34.1463 140.702 34.0279 140.412 34.0432C139.728 34.0432 139.384 34.4976 139.384 35.3986C139.384 36.2997 139.728 36.7503 140.412 36.7503C141.095 36.7503 141.439 36.2997 141.439 35.3986Z" fill="#0560FB"/>
<path d="M145.936 37.6091H144.611L142.977 33.1724H144.122L145.218 36.3224H145.309L146.413 33.1724H147.558L145.936 37.6091Z" fill="#0560FB"/>
<path d="M148.549 37.5364C148.346 37.4333 148.178 37.2729 148.067 37.0744C147.949 36.8491 147.892 36.6009 147.899 36.3489C147.892 36.116 147.949 35.8869 148.067 35.6884C148.197 35.4974 148.381 35.3485 148.59 35.2531C148.885 35.1233 149.193 35.0317 149.51 34.9897C149.717 34.9629 149.919 34.9171 150.114 34.8484C150.221 34.8178 150.317 34.7605 150.393 34.6765C150.515 34.4933 150.481 34.2527 150.316 34.1077C150.167 34.0198 149.996 33.9817 149.824 33.9969C149.579 33.9969 149.342 34.0504 149.125 34.1611C148.904 34.2641 148.709 34.4131 148.545 34.5925H148.465L148.002 33.89C148.232 33.638 148.51 33.4394 148.823 33.3096C149.159 33.1684 149.518 33.0997 149.881 33.1034C150.339 33.0653 150.793 33.2027 151.153 33.4853C151.424 33.7678 151.561 34.1534 151.534 34.5429V36.452C151.534 36.6505 151.618 36.7498 151.794 36.7498C151.859 36.7498 151.928 36.7384 151.989 36.7116L152.046 36.7307L152.126 37.4944C152.046 37.5401 151.962 37.5745 151.87 37.5936C151.752 37.6204 151.629 37.6318 151.508 37.6318C151.29 37.6433 151.076 37.5898 150.889 37.4791C150.729 37.3645 150.618 37.1927 150.572 37.0018H150.488C150.266 37.4638 149.785 37.7387 149.277 37.6929C149.025 37.6967 148.777 37.6433 148.549 37.5364ZM150.255 36.6047C150.419 36.4024 150.5 36.1427 150.484 35.8831V35.4364L150.408 35.4173C150.332 35.4784 150.244 35.5241 150.148 35.5547C149.996 35.6005 149.839 35.6349 149.678 35.6578C149.492 35.6769 149.312 35.7494 149.159 35.864C149.053 35.9747 148.995 36.1274 149.003 36.2801C148.991 36.4405 149.053 36.6009 149.171 36.7116C149.305 36.8185 149.473 36.872 149.641 36.8605C149.873 36.8758 150.098 36.7804 150.255 36.6085V36.6047Z" fill="#0560FB"/>
<path d="M155.226 36.5513L155.516 37.376C155.382 37.4829 155.226 37.5593 155.062 37.6089C154.863 37.6662 154.653 37.6929 154.447 37.6929C154.046 37.7235 153.649 37.586 153.355 37.3112C153.08 36.9942 152.943 36.5819 152.973 36.1657V34.0657H152.309V33.1722H152.981V32.3093L154.092 32.1299V33.1722H155.348V34.0542H154.092V36.074C154.077 36.2459 154.126 36.4139 154.229 36.5513C154.329 36.6506 154.47 36.7079 154.611 36.7002C154.794 36.704 154.978 36.6468 155.127 36.5399L155.226 36.5513Z" fill="#0560FB"/>
<path d="M156.313 32.4738C156.057 32.2142 156.057 31.798 156.313 31.5384C156.443 31.4124 156.622 31.3475 156.802 31.3551C156.924 31.3551 157.046 31.3818 157.157 31.4391C157.256 31.4925 157.34 31.5728 157.401 31.6682C157.512 31.8782 157.512 32.1302 157.401 32.3402C157.344 32.4395 157.26 32.5196 157.157 32.5731C157.046 32.6304 156.924 32.6609 156.802 32.6571C156.622 32.6648 156.443 32.5998 156.313 32.4738ZM156.248 37.6093V33.1725H157.359V37.594L156.248 37.6093Z" fill="#0560FB"/>
<path d="M159.418 37.4261C159.09 37.2467 158.827 36.9756 158.655 36.6434C158.292 35.853 158.292 34.9443 158.655 34.1539C158.823 33.8217 159.09 33.5469 159.418 33.3674C160.14 33.0123 160.987 33.0123 161.709 33.3674C162.038 33.5469 162.305 33.8217 162.473 34.1539C162.835 34.9443 162.835 35.853 162.473 36.6434C162.301 36.9756 162.038 37.2467 161.709 37.4261C160.987 37.785 160.14 37.785 159.418 37.4261ZM161.587 35.3986C161.618 35.0359 161.522 34.6732 161.323 34.3716C161.136 34.1463 160.85 34.0279 160.56 34.0432C159.872 34.0432 159.533 34.4976 159.533 35.3986C159.533 36.2997 159.872 36.7503 160.56 36.7503C161.247 36.7503 161.587 36.2997 161.587 35.3986Z" fill="#0560FB"/>
<path d="M163.766 37.6102V33.1734H164.835V33.8226L164.919 33.8417C165.404 33.0818 166.412 32.8604 167.171 33.3453C167.248 33.3911 167.317 33.4484 167.382 33.5057C167.641 33.8531 167.771 34.2846 167.741 34.7198V37.5949H166.63V34.8573C166.649 34.632 166.587 34.4029 166.454 34.2197C166.301 34.0784 166.095 34.0058 165.889 34.0249C165.598 34.002 165.316 34.1166 165.125 34.3342C164.922 34.6167 164.827 34.9604 164.858 35.304V37.5949L163.766 37.6102Z" fill="#0560FB"/>
<path d="M10.7961 11.409C9.43683 11.409 8.2265 12.9667 9.15427 14.391L16.7907 26.0135C17.4092 26.9757 18.4783 27.5522 19.6237 27.5407C20.6127 27.5522 21.5519 27.1207 22.1857 26.361L22.3385 26.1777L40.1618 5.19676C40.8528 4.36822 40.7421 3.13495 39.9135 2.44385C39.169 1.82149 38.0847 1.84058 37.363 2.48203L19.5779 18.5375L12.0255 11.89C11.6895 11.5846 11.2505 11.4127 10.7961 11.409Z" fill="#2AA509"/>
<path d="M5.99947 0.622956C2.80747 0.626775 0.222568 3.21169 0.21875 6.40369V33.5128C0.230204 36.7009 2.8113 39.2782 5.99947 39.2821H33.1086C36.3006 39.2821 38.8855 36.6933 38.8893 33.5013V14.1469L35.5102 18.1255V33.5089C35.5102 34.8339 34.4334 35.9106 33.1086 35.9106H5.99947C4.67457 35.9106 3.60166 34.8339 3.59783 33.5089V6.39987C3.59783 5.07496 4.67457 4.00204 5.99947 3.99823H28.8207L32.5626 0.619141H5.99947V0.622956Z" fill="#0560FB"/>
</g>
</svg>
