<svg width="19" height="20" viewBox="0 0 19 20" fill="none" xmlns="http://www.w3.org/2000/svg">
<path d="M11.8733 11.7813C11.4162 11.7802 10.9651 11.6759 10.5539 11.4761C10.1427 11.2764 9.78183 10.9863 9.49833 10.6277C9.11234 11.1276 8.57716 11.4915 7.9704 11.6667C7.36363 11.8419 6.71683 11.8193 6.12379 11.6021C6.12379 11.6632 6.10547 11.7215 6.10547 11.7833C6.10547 12.6831 6.46293 13.5461 7.09921 14.1824C7.7355 14.8187 8.59848 15.1761 9.49833 15.1761C10.3982 15.1761 11.2612 14.8187 11.8974 14.1824C12.5337 13.5461 12.8912 12.6831 12.8912 11.7833C12.8912 11.7215 12.8763 11.6632 12.8729 11.6021C12.5521 11.7176 12.2142 11.7781 11.8733 11.7813Z" fill="#54627B"/>
<path d="M15.6077 2.28125L3.39342 2.28125C3.21345 2.28125 3.04085 2.35274 2.91359 2.48C2.78634 2.60726 2.71484 2.77985 2.71484 2.95982L2.71484 17.8884C2.71484 18.0684 2.78634 18.241 2.91359 18.3682C3.04085 18.4955 3.21345 18.567 3.39342 18.567L15.6077 18.567C15.7877 18.567 15.9603 18.4955 16.0875 18.3682C16.2148 18.241 16.2863 18.0684 16.2863 17.8884L16.2863 2.95982C16.2863 2.77985 16.2148 2.60726 16.0875 2.48C15.9603 2.35274 15.7877 2.28125 15.6077 2.28125ZM4.75056 4.99554C4.75056 4.81557 4.82205 4.64297 4.94931 4.51571C5.07656 4.38846 5.24916 4.31696 5.42913 4.31696L8.14341 4.31696C8.32338 4.31696 8.49598 4.38846 8.62324 4.51571C8.75049 4.64297 8.82199 4.81557 8.82199 4.99554C8.82199 5.1755 8.75049 5.3481 8.62324 5.47536C8.49598 5.60261 8.32338 5.67411 8.14341 5.67411L5.42913 5.67411C5.24916 5.67411 5.07656 5.60261 4.94931 5.47536C4.82205 5.3481 4.75056 5.1755 4.75056 4.99554ZM9.50056 16.5312C8.5611 16.5312 7.64273 16.2527 6.8616 15.7307C6.08047 15.2088 5.47165 14.4669 5.11213 13.599C4.75261 12.731 4.65855 11.776 4.84183 10.8546C5.02511 9.93316 5.4775 9.08679 6.1418 8.42249C6.8061 7.75819 7.65247 7.3058 8.57388 7.12252C9.49529 6.93924 10.4504 7.03331 11.3183 7.39282C12.1863 7.75234 12.9281 8.36116 13.45 9.14229C13.972 9.92342 14.2506 10.8418 14.2506 11.7813C14.2491 13.0406 13.7482 14.2479 12.8577 15.1384C11.9672 16.0289 10.7599 16.5298 9.50056 16.5312ZM13.2327 6.01339C13.0314 6.01339 12.8346 5.9537 12.6672 5.84185C12.4998 5.73001 12.3694 5.57104 12.2923 5.38505C12.2153 5.19906 12.1951 4.99441 12.2344 4.79696C12.2737 4.59952 12.3706 4.41815 12.513 4.2758C12.6553 4.13345 12.8367 4.03651 13.0341 3.99724C13.2316 3.95796 13.4362 3.97812 13.6222 4.05516C13.8082 4.1322 13.9672 4.26266 14.079 4.43004C14.1909 4.59743 14.2506 4.79422 14.2506 4.99554C14.2506 5.26549 14.1433 5.52438 13.9524 5.71527C13.7615 5.90615 13.5027 6.01339 13.2327 6.01339Z" fill="#54627B"/>
</svg>
