<svg width="20" height="20" viewBox="0 0 20 20" fill="none" xmlns="http://www.w3.org/2000/svg">
<path d="M3.76438 16.9216C3.58402 16.9226 3.41068 16.8518 3.28263 16.7248C-0.427275 13.0153 -0.427582 7.00067 3.28194 3.29077C3.28217 3.29054 3.2824 3.29031 3.28263 3.29008C3.54728 3.027 3.97469 3.027 4.23934 3.29008C4.50242 3.55473 4.50242 3.98215 4.23934 4.2468C1.05407 7.42103 1.04512 12.5764 4.21935 15.7617C4.226 15.7684 4.23267 15.775 4.23934 15.7817C4.50242 16.0463 4.50242 16.4737 4.23934 16.7384C4.1108 16.8588 3.94048 16.9245 3.76438 16.9216Z" fill="#ADADAD"/>
<path d="M5.68322 15.0011C5.50286 15.0022 5.32952 14.9314 5.20147 14.8043C2.55264 12.1547 2.55264 7.85967 5.20147 5.21004C5.4861 4.96629 5.91443 4.99943 6.15818 5.28406C6.37572 5.53808 6.37572 5.91274 6.15818 6.16676C4.03717 8.28541 4.03526 11.7223 6.15391 13.8434C6.15533 13.8448 6.15676 13.8462 6.15818 13.8476C6.42126 14.1123 6.42126 14.5397 6.15818 14.8043C6.0318 14.9297 5.86122 15.0004 5.68322 15.0011Z" fill="#ADADAD"/>
<path d="M7.59722 13.0874C7.41825 13.0848 7.24753 13.0117 7.12226 12.8838C5.53477 11.2944 5.53477 8.71943 7.12226 7.12996C7.40689 6.88621 7.83522 6.91935 8.07897 7.20398C8.29651 7.45801 8.29651 7.83266 8.07897 8.08668C7.01847 9.14601 7.01751 10.8645 8.07684 11.925C8.07755 11.9257 8.07826 11.9264 8.07897 11.9271C8.34205 12.1918 8.34205 12.6192 8.07897 12.8838C7.95204 13.0133 7.77856 13.0866 7.59722 13.0874Z" fill="#ADADAD"/>
<path d="M16.2348 16.9215C16.0568 16.9207 15.8862 16.8501 15.7598 16.7247C15.4967 16.4601 15.4967 16.0327 15.7598 15.768C18.9451 12.5938 18.954 7.43839 15.7798 4.25312C15.7731 4.24644 15.7665 4.23978 15.7598 4.23313C15.4967 3.96848 15.4967 3.54106 15.7598 3.27641C16.0245 3.01333 16.4519 3.01333 16.7165 3.27641C20.4264 6.98593 20.4267 13.0006 16.7172 16.7105L16.7165 16.7112C16.5907 16.8432 16.4171 16.919 16.2348 16.9215Z" fill="#ADADAD"/>
<path d="M14.3168 15.0011C14.1388 15.0004 13.9682 14.9297 13.8418 14.8043C13.5788 14.5397 13.5788 14.1123 13.8418 13.8476C15.9629 11.729 15.9648 8.29203 13.8461 6.17102C13.8447 6.16959 13.8433 6.16817 13.8418 6.16675C13.5981 5.88212 13.6312 5.45378 13.9159 5.21003C14.1699 4.99249 14.5445 4.99249 14.7986 5.21003C17.4474 7.85966 17.4474 12.1547 14.7986 14.8043C14.6705 14.9313 14.4972 15.0021 14.3168 15.0011Z" fill="#ADADAD"/>
<path d="M12.4025 13.0872C12.2212 13.0864 12.0477 13.0131 11.9208 12.8836C11.6577 12.619 11.6577 12.1916 11.9208 11.9269C12.9813 10.8676 12.9822 9.14912 11.9229 8.08862C11.9222 8.0879 11.9215 8.08719 11.9208 8.08648C11.6362 7.84273 11.603 7.41439 11.8468 7.12976C12.0905 6.84513 12.5188 6.812 12.8035 7.05575C12.83 7.07848 12.8548 7.10322 12.8775 7.12976C14.465 8.71923 14.465 11.2942 12.8775 12.8836C12.7522 13.0115 12.5815 13.0846 12.4025 13.0872Z" fill="#ADADAD"/>
<path d="M9.99958 11.3644C10.749 11.3644 11.3566 10.7568 11.3566 10.0074C11.3566 9.25794 10.749 8.65039 9.99958 8.65039C9.25013 8.65039 8.64258 9.25794 8.64258 10.0074C8.64258 10.7568 9.25013 11.3644 9.99958 11.3644Z" fill="#ADADAD"/>
</svg>
